<?xml version="1.0" encoding="UTF-8" standalone="no"?>
<!-- Created with Inkscape (http://www.inkscape.org/) -->

<svg
   xmlns:dc="http://purl.org/dc/elements/1.1/"
   xmlns:cc="http://creativecommons.org/ns#"
   xmlns:rdf="http://www.w3.org/1999/02/22-rdf-syntax-ns#"
   xmlns:svg="http://www.w3.org/2000/svg"
   xmlns="http://www.w3.org/2000/svg"
   xmlns:sodipodi="http://sodipodi.sourceforge.net/DTD/sodipodi-0.dtd"
   xmlns:inkscape="http://www.inkscape.org/namespaces/inkscape"
   version="1.1"
   id="svg5429"
   width="132.28346"
   height="142.66574"
   viewBox="0 0 132.28346 142.66574"
   sodipodi:docname="A-TeamLogo.svg"
   inkscape:version="0.92.2 2405546, 2018-03-11">
  <metadata
     id="metadata5435">
    <rdf:RDF>
      <cc:Work
         rdf:about="">
        <dc:format>image/svg+xml</dc:format>
        <dc:type
           rdf:resource="http://purl.org/dc/dcmitype/StillImage" />
        <dc:title></dc:title>
      </cc:Work>
    </rdf:RDF>
  </metadata>
  <defs
     id="defs5433" />
  <sodipodi:namedview
     pagecolor="#ffffff"
     bordercolor="#666666"
     borderopacity="1"
     objecttolerance="10"
     gridtolerance="10"
     guidetolerance="10"
     inkscape:pageopacity="0"
     inkscape:pageshadow="2"
     inkscape:window-width="1880"
     inkscape:window-height="988"
     id="namedview5431"
     showgrid="false"
     inkscape:zoom="2.8235293"
     inkscape:cx="28.391245"
     inkscape:cy="72.97853"
     inkscape:window-x="20"
     inkscape:window-y="46"
     inkscape:window-maximized="0"
     inkscape:current-layer="svg5429"
     fit-margin-top="0"
     fit-margin-left="0"
     fit-margin-right="0"
     fit-margin-bottom="0" />
  <path
     style="fill:#000000;stroke-width:0.16047949"
     d="M 60.872504,142.52969 C 54.593375,142.07574 47.588231,140.42404 41.294007,137.9134 30.547083,133.62667 20.556168,125.97443 13.396878,116.54643 10.204541,112.34246 7.0930482,106.95238 5.0555719,102.09665 2.6789124,96.432584 1.0458233,89.934484 0.27629812,83.079834 c -0.32747802,-2.91706 -0.3743836,-9.90272 -0.0840488,-12.5174 0.79956137,-7.20063 1.89696028,-11.9096 4.18867478,-17.9737 1.5197037,-4.02129 4.3820287,-9.56902 6.5710169,-12.73588 3.387223,-4.90037 6.55391,-8.61509 10.216078,-11.98407 4.001633,-3.68127 7.048411,-5.9127 12.503214,-9.15724 2.238881,-1.3317 7.252747,-3.60761 10.232601,-4.64483 0.895461,-0.31169 1.654225,-0.59283 1.686142,-0.62474 0.03192,-0.0319 -0.163353,-0.4503 -0.433935,-0.92975 l -0.491963,-0.87171 V 6.1016936 c 0,-5.16209996 0.01996,-5.55686996 0.293475,-5.80439996 0.428861,-0.38811 6.770772,-0.4 7.157358,-0.0134 0.219646,0.21965 0.252182,0.97658996 0.252182,5.86696996 0,3.27929 0.05997,5.5777304 0.144183,5.5256804 0.286295,-0.17694 4.808319,-0.87388 7.398351,-1.14024 3.581117,-0.36828 11.185139,-0.25112 14.523394,0.22379 8.038905,1.14362 13.817064,2.85178 20.39204,6.02834 21.409649,10.34363 35.657809,31.33922 37.290679,54.95025 0.78542,11.35698 -1.18821,22.23364 -5.90868,32.562826 -1.72829,3.7818 -5.10596,9.50529 -5.61147,9.50869 -0.40885,0.003 -2.59239,-1.1265 -2.59239,-1.3407 0,-0.11797 0.20311,-0.49612 0.45136,-0.84035 1.72293,-2.38907 4.59265,-7.7827 6.01658,-11.30815 2.79019,-6.908086 4.12307,-12.973706 4.61167,-20.986576 0.35454,-5.81436 -0.4571,-13.32108 -2.07626,-19.20315 -3.10985,-11.29741 -8.59196,-20.60632 -16.9711,-28.81782 -7.03653,-6.89578 -15.071188,-11.77459 -24.386704,-14.80813 -4.572235,-1.48892 -7.506357,-2.12488 -12.82052,-2.77879 -3.416213,-0.42037 -10.495769,-0.3769 -14.122195,0.0867 -2.280287,0.29152 -6.803483,1.10204 -7.817255,1.4008 -0.227133,0.0669 -0.282732,0.32266 -0.320958,1.47628 l -0.04624,1.39532 -1.912988,0.0454 c -2.12415,0.0505 -2.17271,0.0289 -2.176781,-0.96821 -0.0012,-0.33099 -0.03892,-0.6018 -0.08347,-0.6018 -0.583286,0 -7.009086,2.72084 -9.307035,3.94082 -2.34914,1.24717 -2.871681,1.55828 -5.376064,3.20081 -10.978184,7.2002 -19.332414,17.435 -24.1383962,29.57204 -1.3001502,3.28341 -2.6661658,7.80255 -3.1397281,10.38706 -0.5509998,3.00714 -0.8147173,4.69021 -0.9932364,6.33894 -0.2663221,2.45966 -0.2656351,10.62776 0.00113,12.99884 1.9966263,17.748976 10.8782757,33.390066 24.9804377,43.991966 3.316213,2.4931 5.843113,4.04794 9.70901,5.97409 14.717171,7.33271 31.617535,8.62021 47.330073,3.6057 4.101761,-1.30904 9.170022,-3.6159 13.053704,-5.9415 1.270593,-0.76084 1.590836,-0.75795 3.240326,0.0293 1.58555,0.75671 1.56072,0.80104 -1.47974,2.64152 -8.582929,5.1955 -18.952959,8.48971 -29.08562,9.2395 -2.323762,0.17196 -7.824932,0.16635 -10.270688,-0.0105 z m 9.848921,-0.48128 c 5.620548,-0.34376 12.560753,-1.81109 17.86554,-3.77722 2.398651,-0.88902 4.781798,-1.94369 7.430547,-3.28841 2.501506,-1.26998 5.937738,-3.29229 5.937738,-3.49451 0,-0.10708 -0.93697,-0.55379 -1.81271,-0.86422 -0.340532,-0.12071 -0.514543,-0.10263 -0.722159,0.075 -0.737612,0.63122 -6.834288,3.74952 -9.041517,4.62451 -4.519525,1.79164 -9.196615,3.16549 -12.512281,3.67537 -0.564504,0.0868 -1.856851,0.30696 -2.871884,0.48923 -1.515243,0.27208 -2.793243,0.34832 -7.141338,0.42602 -6.0192,0.10755 -8.29703,-0.0267 -12.356918,-0.7281 -7.885959,-1.36247 -14.421238,-3.73764 -21.664732,-7.87378 -1.211179,-0.6916 -4.173522,-2.6962 -5.937739,-4.01804 -5.50265,-4.12284 -10.834833,-9.76579 -14.635664,-15.48864 C 7.2401871,102.74423 3.817625,92.818404 2.7611004,81.362514 c -0.3026883,-3.28205 -0.100266,-9.87911 0.4126378,-13.44803 0.6584777,-4.58187 1.4086857,-7.82878 2.6882493,-11.63476 3.1758168,-9.44628 8.4439545,-17.92135 15.4493195,-24.85396 6.729126,-6.65924 14.275719,-11.49527 22.84754,-14.64123 1.116383,-0.40972 2.092996,-0.80277 2.170252,-0.87343 0.197501,-0.18064 -0.01297,-1.12511 -0.34756,-1.55971 l -0.280349,-0.36415 -1.120355,0.38574 c -5.93473,2.04331 -12.711715,5.63563 -17.496744,9.27461 -0.503866,0.38319 -1.06939,0.80348 -1.256718,0.93396 -0.998147,0.69531 -4.762982,4.07744 -6.461865,5.80501 -5.364565,5.45516 -9.5394999,11.45259 -12.720172,18.27293 -2.8776521,6.17057 -4.3529769,11.11579 -5.5768432,18.69331 -0.42595364,2.63728 -0.44083755,2.93929 -0.44684807,9.06709 -0.006552,6.67973 0.0308775,7.15826 0.95509297,12.21069 1.2129168,6.63067 3.6477469,13.415556 6.9920445,19.484006 2.2291898,4.04501 4.1417228,6.83748 7.1984648,10.51041 1.563033,1.87812 5.633432,6.0739 7.232098,7.45488 7.904132,6.82785 17.19417,11.66672 27.281514,14.21005 3.778986,0.95279 7.18483,1.46071 12.196441,1.81886 1.731854,0.12377 5.709092,0.0946 8.244125,-0.0604 z m 51.757555,-31.86093 c 2.14342,-3.5711 4.04122,-7.58735 5.52936,-11.701616 0.93638,-2.58883 2.28329,-7.49819 2.59767,-9.46829 0.0563,-0.35305 0.23466,-1.36408 0.39628,-2.24671 0.92504,-5.05186 0.96344,-15.13886 0.0764,-20.05994 -0.12729,-0.70611 -0.34059,-1.91111 -0.47402,-2.67778 -0.30642,-1.76073 -0.89633,-4.11896 -1.69863,-6.79051 -1.87827,-6.25438 -4.86143,-12.42001 -8.76171,-18.10881 -4.65915,-6.79565 -11.31768,-13.29375 -18.10881,-17.67251 -0.79437,-0.51219 -1.69707,-1.09406 -2.00599,-1.29305 -0.308925,-0.19899 -1.392162,-0.81612 -2.407195,-1.37141 -12.514725,-6.84636 -26.651558,-9.3779904 -41.082747,-7.3571 -1.516247,0.21233 -4.104486,0.72743 -4.317917,0.85934 -0.08887,0.0549 -0.442972,0.63686 -0.786892,1.29319 -0.343918,0.65633 -0.568025,1.15793 -0.498017,1.11467 0.16424,-0.10151 4.518194,-0.95286 6.084265,-1.18969 1.951482,-0.29511 6.8186,-0.6404 9.067091,-0.64325 11.181029,-0.0142 22.798635,3.13791 32.139344,8.72004 0.906534,0.54176 1.773128,1.05767 1.925758,1.14646 0.63482,0.36932 2.93331,1.96674 4.12901,2.86962 7.80922,5.89677 14.34915,13.7263 18.67101,22.35273 2.63142,5.25231 4.88591,12.14138 5.79406,17.70495 0.61671,3.77817 0.67539,4.48459 0.75979,9.14733 0.14929,8.24724 -0.47029,13.0368 -2.6261,20.30065 -1.6156,5.443656 -4.71541,12.045016 -7.73646,16.475606 -0.54081,0.79314 -0.48109,0.95541 0.45485,1.23582 0.3504,0.10498 0.68656,0.27093 0.74703,0.36877 0.1485,0.24027 0.37124,-0.074 2.1326,-3.00851 z M 50.120379,16.320374 c 0,-0.75025 0.05461,-1.36408 0.121351,-1.36408 0.156046,0 1.415381,-2.49693 1.578302,-3.12935 0.06821,-0.26479 0.148921,-2.8084704 0.179348,-5.6526204 0.05369,-5.01819 0.0457,-5.18078996 -0.269919,-5.49641996 -0.302324,-0.30232 -0.526664,-0.32524 -3.183203,-0.32524 -2.216223,0 -2.927906,0.0512 -3.169471,0.22797 -0.297406,0.21765 -0.311512,0.46651996 -0.311512,5.49641996 v 5.2684504 l 0.521559,0.95126 c 0.286858,0.52319 0.521559,1.08574 0.521559,1.2501 0,0.16437 0.142126,0.57745 0.315833,0.91794 0.190592,0.3736 0.358831,1.13469 0.42427,1.91936 l 0.10844,1.30028 h 1.581722 1.581721 z M 61.755142,131.77868 c -4.174324,-0.19036 -9.349486,-0.65458 -13.560517,-1.21641 -15.673105,-2.09108 -25.168926,-6.09795 -25.191755,-10.62993 -0.0024,-0.47189 0.152083,-0.99439 0.474394,-1.6048 0.393673,-0.74555 0.506806,-1.21628 0.641785,-2.67037 0.09013,-0.97091 0.163925,-2.21754 0.164,-2.77031 1.4e-4,-1.05601 -0.02591,-1.16362 -1.586798,-6.55491 -0.629254,-2.17344 -0.980741,-3.68059 -0.980741,-4.20534 0,-0.5403 0.294383,-1.75979 0.867434,-3.593376 1.163912,-3.72414 2.649073,-8.54583 2.906272,-9.43542 0.114833,-0.39719 0.545744,-1.80539 0.957579,-3.12935 0.922308,-2.96501 1.496351,-4.82362 1.685212,-5.4563 0.07904,-0.26479 0.336109,-1.09527 0.571258,-1.84551 0.235149,-0.75025 0.591551,-1.9057 0.792002,-2.56768 0.200455,-0.66198 0.634806,-2.07018 0.965229,-3.12935 0.330423,-1.05916 0.693298,-2.25072 0.806388,-2.64791 0.113087,-0.39719 0.834927,-2.7442 1.604083,-5.21558 0.769156,-2.47139 1.491065,-4.8184 1.604244,-5.21559 0.113179,-0.39718 0.689174,-2.27479 1.279993,-4.17246 0.590819,-1.89767 1.638225,-5.29181 2.32757,-7.54254 0.689343,-2.25072 1.402314,-4.56163 1.584377,-5.13534 0.182064,-0.57371 0.729649,-2.343 1.216858,-3.93175 0.525601,-1.71395 0.997333,-2.9702 1.160026,-3.08923 0.301385,-0.22049 0.994832,-0.26289 1.272064,-0.0778 0.09712,0.0648 0.251999,0.26233 0.344185,0.43886 0.253121,0.48471 1.325265,4.46945 1.321187,4.91034 -0.0024,0.25721 -0.260569,0.61082 -0.775925,1.06267 -0.480374,0.42118 -0.979537,1.08536 -1.320388,1.75689 -0.529849,1.04388 -0.548028,1.14123 -0.547817,2.93361 2.41e-4,2.1983 0.242044,2.84181 1.631744,4.34285 0.52498,0.56704 0.855471,1.0686 0.855471,1.29828 0,0.32593 -0.476875,1.97367 -1.597716,5.52057 -0.167351,0.52958 -0.678701,2.19054 -1.136332,3.69103 -0.457634,1.50048 -1.158637,3.77528 -1.557786,5.0551 -0.399151,1.27982 -0.851245,2.76025 -1.004658,3.28983 -0.153413,0.52958 -0.660671,2.19055 -1.127242,3.69103 -0.466572,1.50048 -1.010824,3.26977 -1.209451,3.93175 -0.198624,0.66197 -0.735503,2.39515 -1.19306,3.8515 -0.457559,1.45635 -0.890653,2.86456 -0.962436,3.12935 -0.07178,0.26479 -0.467688,1.56468 -0.879795,2.88863 -0.412104,1.32396 -0.934975,3.02103 -1.161935,3.77127 -0.226962,0.75024 -0.578426,1.9057 -0.781035,2.56767 -0.202608,0.66198 -0.604942,1.97992 -0.894072,2.92876 -0.453496,1.48822 -0.572601,1.72515 -0.86727,1.72515 -0.187867,0 -0.466245,-0.13776 -0.618615,-0.30612 -0.489575,-0.54098 -1.857674,-1.02588 -2.872746,-1.0182 -0.716156,0.005 -1.176235,0.12653 -1.97563,0.52007 -1.131627,0.5571 -1.768385,1.26831 -2.239126,2.500926 -0.392242,1.02707 -0.249895,2.69763 0.311491,3.65556 0.8689,1.48267 2.665531,2.45498 4.244155,2.29689 0.633583,-0.0634 0.873228,-0.029 0.93595,0.13441 0.06359,0.16571 -2.266371,8.096 -2.805317,9.54824 -0.04914,0.1324 0.15491,0.0357 0.453433,-0.21494 0.716953,-0.60189 4.008581,-2.17595 6.020594,-2.87906 4.66991,-1.63191 11.56088,-3.0363 19.016821,-3.87567 5.103613,-0.57455 6.92201,-0.70506 12.891999,-0.92529 l 5.269225,-0.19439 -0.111802,-0.48887 c -0.254929,-1.11468 -0.255148,-1.1144 0.887156,-1.12966 1.507637,-0.0201 2.255665,-0.29419 3.183642,-1.16639 1.064918,-1.00091 1.462213,-1.89423 1.466738,-3.29798 0.0068,-2.105636 -1.167327,-3.675716 -3.201828,-4.281616 -0.580179,-0.17279 -1.269827,-0.27646 -1.532551,-0.23038 -1.122926,0.19694 -1.711636,0.43153 -2.39835,0.95572 -0.40151,0.30647 -0.793882,0.55723 -0.871938,0.55723 -0.198815,0 -0.37543,-0.51765 -1.533102,-4.49343 -0.184403,-0.63329 -1.828804,-5.96881 -3.561087,-11.55452 -0.314789,-1.01503 -0.738998,-2.38713 -0.942685,-3.04911 -0.754645,-2.45258 -1.522773,-4.95388 -2.168394,-7.0611 -0.36508,-1.19156 -1.097552,-3.57468 -1.627719,-5.29582 -0.530165,-1.72114 -1.095822,-3.56264 -1.257012,-4.09223 -0.279374,-0.91786 -0.502564,-1.64434 -2.391156,-7.78325 -0.448033,-1.45635 -0.815214,-2.77835 -0.815956,-2.93778 -7.22e-4,-0.15943 0.358708,-0.65564 0.798774,-1.1027 2.534167,-2.57446 2.502074,-6.52657 -0.07341,-9.04106 -0.487952,-0.47639 -0.887185,-0.97563 -0.887185,-1.10943 0,-0.1338 0.176151,-0.91327 0.391446,-1.73216 0.937502,-3.56587 1.059509,-3.81585 1.86236,-3.81585 0.936619,0 0.949635,0.0317 3.522813,8.58566 0.513379,1.7066 2.095773,6.85743 2.563664,8.34493 0.249869,0.79437 0.563143,1.80539 0.696165,2.24671 0.133024,0.44132 0.535193,1.7412 0.893711,2.88863 0.599925,1.92006 2.835143,9.20787 3.814557,12.43716 0.22754,0.75024 0.653685,2.12234 0.946989,3.04911 0.293305,0.92677 0.640217,2.04612 0.77092,2.48743 0.130701,0.44132 0.684021,2.24672 1.229601,4.01199 0.545578,1.76527 1.084763,3.53456 1.198187,3.93175 0.113427,0.39718 0.425231,1.4082 0.692901,2.24671 0.26767,0.83851 1.431572,4.6009 2.586444,8.36088 2.311749,7.526486 2.373005,7.862326 1.784971,9.786386 -0.173137,0.56652 -0.487971,1.64386 -0.699628,2.3941 l -0.384833,1.36408 2.585261,0.1109 c 6.362161,0.27292 9.777276,0.50792 13.73859,0.94538 14.077214,1.55458 23.902644,4.48982 27.343774,8.16867 0.41765,0.4465 0.86335,1.06072 0.99047,1.36494 0.29672,0.71015 0.29672,2.18199 0,2.89214 -0.32983,0.78939 -1.57162,2.05829 -2.83865,2.9006 -5.76408,3.83196 -19.716355,6.71851 -36.007001,7.44942 -3.831152,0.17189 -14.133886,0.16758 -17.973702,-0.008 z m 19.257537,-0.55285 c 15.942299,-0.84495 28.997001,-3.65693 34.631531,-7.45963 3.44529,-2.3252 3.59757,-4.879 0.43097,-7.22768 -2.33553,-1.73228 -6.68819,-3.45821 -11.87321,-4.708 -5.275564,-1.27161 -13.458041,-2.46575 -19.418022,-2.83383 -1.544616,-0.0954 -3.819413,-0.23949 -5.055104,-0.32021 -3.421934,-0.22355 -5.913987,-0.23191 -5.984592,-0.0201 -0.04244,0.12731 0.546127,0.1804 1.999748,0.1804 2.423313,0 8.923016,0.37584 12.428903,0.71869 2.649322,0.25909 8.55241,0.9974 8.960737,1.12073 0.13637,0.0412 1.114535,0.22558 2.173699,0.40974 8.250831,1.43462 15.131591,3.97887 17.627901,6.51815 2.67238,2.71839 0.7506,5.50398 -5.59203,8.10558 -1.8563,0.76141 -7.45087,2.37469 -9.14724,2.63775 -0.35305,0.0548 -1.048,0.20035 -1.54433,0.32355 -1.856763,0.46089 -8.514325,1.38361 -12.519591,1.73518 -5.626899,0.49392 -6.948519,0.57702 -11.984108,0.75359 -5.173792,0.18141 -12.93404,0.034 -17.361671,-0.32977 -1.015031,-0.0834 -2.856533,-0.23101 -4.092226,-0.32804 -2.207822,-0.17337 -7.233618,-0.74608 -7.863493,-0.89609 -0.176529,-0.042 -1.223658,-0.21287 -2.326953,-0.37963 -6.177633,-0.93372 -12.009328,-2.56462 -15.807229,-4.42067 -3.451495,-1.68676 -4.88086,-3.16623 -4.905905,-5.07787 -0.0083,-0.62912 -0.04841,-0.7745 -0.1492,-0.53996 -0.727882,1.69388 1.105863,3.98522 4.604252,5.75323 6.112111,3.08893 18.762101,5.56157 32.14555,6.28337 5.097294,0.27491 15.448969,0.27567 20.621613,0.001 z m 0.481439,-0.80267 c 16.597414,-0.94195 29.443772,-3.89816 34.579032,-7.95734 0.58183,-0.45992 0.96067,-0.92773 1.23303,-1.52265 0.36031,-0.78702 0.37614,-0.91633 0.18945,-1.54783 -1.05516,-3.56915 -11.05271,-7.06862 -25.570874,-8.95063 -4.176727,-0.54143 -14.224597,-1.19419 -16.924882,-1.09952 l -1.519378,0.0533 -0.3818,1.36407 -0.381798,1.36408 0.254797,3.66419 c 0.273329,3.93075 0.247327,4.16941 -0.484633,4.4477 -0.62016,0.23579 -1.872261,0.1823 -2.271039,-0.097 -0.890076,-0.62343 -0.09884,-1.41853 1.323532,-1.33 0.488349,0.0304 0.887811,0.014 0.88769,-0.0365 -1.2e-4,-0.0505 -0.102156,-0.41155 -0.22675,-0.80239 -0.124591,-0.39085 -0.75167,-2.44381 -1.393509,-4.56214 -0.641837,-2.11833 -1.228371,-3.93404 -1.303408,-4.03492 -0.147214,-0.19791 -1.507913,-0.17749 -7.668197,0.11507 -17.415582,0.82706 -31.489048,4.02573 -36.204699,8.22872 l -0.898788,0.80108 0.698401,0.25733 c 0.485875,0.17902 0.713388,0.3613 0.747652,0.599 0.05574,0.3867 -0.492453,0.85267 -1.007715,0.85656 -0.178953,0.001 -0.427164,0.0669 -0.55158,0.14565 -0.637851,0.40379 0.969394,2.15539 3.078845,3.35536 5.941273,3.37973 18.989795,6.0154 33.415726,6.74963 4.488087,0.22842 15.883942,0.19445 20.380895,-0.0608 z M 28.980911,120.21973 c -0.284819,-0.0861 -0.598987,-0.30823 -0.698146,-0.49352 -0.1487,-0.27784 -0.120444,-0.39673 0.161231,-0.67841 0.276314,-0.27631 0.535145,-0.34153 1.355521,-0.34153 0.623547,0 1.116184,0.0848 1.27938,0.22025 0.356502,0.29587 0.336523,0.93399 -0.03548,1.13307 -0.471889,0.25255 -1.494481,0.33195 -2.062508,0.16014 z m 1.401154,-0.49461 c 0.494047,-0.17223 0.50992,-0.19945 0.233994,-0.4012 -0.544204,-0.39794 -2.186843,-0.16925 -1.757869,0.24472 0.08752,0.0845 0.339676,0.18596 0.560336,0.22555 0.22066,0.0396 0.408477,0.0818 0.417371,0.0938 0.0089,0.012 0.254671,-0.0613 0.546168,-0.1629 z m 3.570006,0.43634 c -0.750322,-0.33965 -0.733084,-0.98198 0.03497,-1.3029 1.471052,-0.61464 3.261654,0.19309 2.380783,1.07396 -0.414058,0.41406 -1.731089,0.53887 -2.415749,0.22894 z m 1.950066,-0.53568 c 0.215564,-0.12794 -0.392093,-0.51831 -0.806814,-0.51831 -0.198044,0 -0.563374,0.0811 -0.811845,0.18016 l -0.451767,0.18016 0.481438,0.2157 c 0.435211,0.19498 1.210693,0.16682 1.588988,-0.0577 z m 3.546357,0.65011 c -0.402742,-0.0981 -0.882638,-0.51526 -0.882638,-0.76722 0,-0.6724 1.613616,-1.08442 2.612483,-0.66706 0.472252,0.19732 0.597106,0.3368 0.597106,0.66706 0,0.65442 -1.185516,1.04529 -2.326951,0.76722 z m 1.352286,-0.54644 c 0.687246,-0.23957 0.417087,-0.50565 -0.53425,-0.52617 -0.881172,-0.019 -1.311785,0.29646 -0.724882,0.53105 0.518369,0.20719 0.652279,0.20667 1.259132,-0.005 z m 3.542337,0.45518 c -0.252829,-0.12727 -0.420103,-0.36511 -0.452323,-0.64315 -0.04382,-0.37811 0.03581,-0.47751 0.556988,-0.69527 1.166749,-0.4875 2.981736,0.13441 2.525267,0.86529 -0.402133,0.64389 -1.793454,0.89419 -2.629932,0.47313 z m 1.968491,-0.54544 c 0.426348,-0.2512 -0.710911,-0.58278 -1.382652,-0.40312 -0.525004,0.1404 -0.560503,0.39986 -0.07375,0.53903 0.350357,0.10018 1.188443,0.022 1.456404,-0.13591 z m 3.223394,0.59271 c -0.461569,-0.18623 -0.587593,-0.42346 -0.471234,-0.88708 0.178681,-0.71192 2.286228,-0.91056 2.921436,-0.27535 0.337529,0.33753 0.211691,0.87706 -0.26003,1.11486 -0.45507,0.22941 -1.673889,0.25588 -2.190172,0.0476 z m 1.675175,-0.42489 c 0.481508,-0.12899 0.374446,-0.40864 -0.217617,-0.56843 -0.514841,-0.13896 -1.632659,0.14046 -1.408514,0.35208 0.2747,0.25934 1.070414,0.36521 1.626131,0.21635 z m 3.439336,0.33448 c -0.427351,-0.29933 -0.470356,-0.96302 -0.07583,-1.17021 0.511885,-0.26883 1.55663,-0.33725 2.126355,-0.13925 0.47205,0.16406 0.561677,0.27127 0.561677,0.6719 0,0.34737 -0.108848,0.53177 -0.401199,0.67968 -0.556839,0.28171 -1.781992,0.25837 -2.211004,-0.0421 z m 1.839477,-0.41184 0.451768,-0.18022 -0.537798,-0.22807 c -0.432568,-0.18343 -0.650021,-0.19102 -1.111343,-0.0388 -0.535051,0.17658 -0.553445,0.20398 -0.274047,0.40828 0.3639,0.26609 0.868284,0.27939 1.47142,0.0388 z m 3.42206,0.45466 c -0.501924,-0.25394 -0.594129,-0.6879 -0.231336,-1.08878 0.365638,-0.40402 2.060157,-0.4383 2.610528,-0.0528 0.465924,0.32634 0.401986,0.87145 -0.133903,1.1416 -0.515938,0.26009 -1.731202,0.26008 -2.245289,-2e-5 z m 2.04192,-0.49901 c 0.212435,-0.21244 -0.283714,-0.46111 -0.919986,-0.46111 -0.763465,0 -1.183103,0.28228 -0.801055,0.53884 0.244708,0.16434 1.537353,0.10595 1.721041,-0.0777 z m 3.154442,0.54879 c -0.617233,-0.2494 -0.647587,-0.97394 -0.05411,-1.29156 0.401115,-0.21466 1.814152,-0.19619 2.311073,0.0302 0.515469,0.23487 0.541801,0.82573 0.05208,1.16874 -0.385683,0.27014 -1.735658,0.32428 -2.309044,0.0926 z m 1.950931,-0.55049 c 0.29271,-0.21403 0.279179,-0.23431 -0.250165,-0.37486 -0.820891,-0.21797 -1.939205,0.1297 -1.437602,0.44692 0.356525,0.22547 1.33819,0.18356 1.687767,-0.0721 z m 5.11484,0.12886 c 0.746381,-0.28641 -0.40099,-0.76417 -1.263366,-0.52606 -0.925696,0.2556 -0.671939,0.56191 0.501088,0.60485 0.279639,0.0102 0.622663,-0.0252 0.762278,-0.0788 z M 25.54858,119.6037 c 0.178286,-0.11291 0.156551,-0.17595 -0.109809,-0.3185 -0.490273,-0.26238 -0.802048,-0.21751 -0.995109,0.14323 -0.155654,0.29084 -0.1223,0.32073 0.355434,0.3185 0.289963,-0.001 0.62723,-0.0658 0.749484,-0.14323 z m -0.790799,-2.15189 c 0.109619,-0.33691 0.163687,-0.64818 0.12015,-0.69171 -0.07989,-0.0799 0.08036,-0.71889 0.65895,-2.62749 0.921576,-3.04004 2.101722,-6.85212 2.191026,-7.0774 0.08698,-0.21943 -0.05684,-0.25974 -0.983198,-0.27552 -1.392453,-0.0237 -2.79699,-0.67879 -3.493576,-1.62936 -0.258701,-0.35304 -0.500826,-0.61142 -0.538051,-0.5742 -0.03723,0.0372 0.07799,0.52365 0.256034,1.08094 0.178043,0.55728 0.551461,1.80762 0.829817,2.77852 0.278354,0.9709 0.612737,2.11368 0.74307,2.53952 0.199387,0.65146 0.210523,1.21818 0.07021,3.57337 -0.09172,1.53951 -0.159351,2.85207 -0.1503,2.91678 0.03805,0.27206 -0.226375,0.82931 -0.355622,0.74944 -0.07722,-0.0477 -0.09614,0.0285 -0.04205,0.16951 0.08747,0.22794 0.120243,0.22442 0.296286,-0.0318 0.108867,-0.15844 0.28763,-0.56372 0.397249,-0.90062 z m 1.451156,-0.89112 c 0.953648,-0.73278 4.152705,-2.24381 6.2587,-2.9562 2.44628,-0.82751 7.944341,-2.21448 9.709007,-2.44926 0.441318,-0.0587 1.30791,-0.21052 1.925754,-0.33735 4.586837,-0.94154 16.329289,-1.96966 22.587488,-1.97766 2.394533,-0.003 3.025992,-0.0966 2.567102,-0.38019 -0.153329,-0.0948 -6.828299,0.16116 -9.58808,0.36762 -1.147429,0.0858 -2.736176,0.19749 -3.530549,0.24813 -2.459111,0.15676 -3.472909,0.25138 -5.135343,0.47932 -0.882637,0.12102 -2.254737,0.30332 -3.04911,0.40512 -5.909455,0.75732 -11.879696,2.08831 -15.895547,3.5437 -0.710553,0.25752 -1.335765,0.46821 -1.389362,0.46821 -0.130229,0 -2.968614,1.36807 -3.57746,1.72429 -0.848432,0.4964 -2.005957,1.37465 -2.005957,1.52198 0,0.17229 0.181452,0.0661 1.123357,-0.65771 z m 46.213326,-2.02778 c -0.153286,-2.67874 -0.150041,-2.72929 0.261895,-4.07982 0.229405,-0.7521 0.510173,-1.50034 0.623925,-1.66274 0.113752,-0.16241 0.177535,-0.41699 0.141738,-0.56574 -0.0358,-0.14875 0.183758,-1.10094 0.487899,-2.11597 0.304142,-1.01504 0.45125,-1.70109 0.326909,-1.52456 -0.46196,0.65584 -1.117075,1.36408 -1.261759,1.36408 -0.08215,0 -0.266488,0.10598 -0.409629,0.23552 -0.281514,0.25477 -2.080394,0.76469 -2.535185,0.71864 -0.63689,-0.0645 -0.676561,-0.0115 -0.577625,0.77099 0.05301,0.41925 0.184008,0.90671 0.291113,1.08324 0.215557,0.35527 2.655482,8.10306 2.655482,8.43227 0,0.11378 0.03385,0.17302 0.07522,0.13165 0.04137,-0.0414 0.0054,-1.29578 -0.07999,-2.78756 z M 24.692435,97.473144 c 1.504748,-0.75278 3.093736,-0.72191 4.724105,0.0918 0.484356,0.24173 0.923674,0.45957 0.976259,0.48409 0.05259,0.0245 0.183748,-0.26434 0.291479,-0.64192 0.235799,-0.82643 1.152244,-3.83022 1.776222,-5.82184 1.362646,-4.34929 2.640194,-8.5214 2.923869,-9.54853 0.08532,-0.30892 0.286848,-0.95886 0.447841,-1.44431 0.160993,-0.48545 0.595085,-1.89366 0.964647,-3.12935 0.369564,-1.23569 0.771334,-2.53558 0.892822,-2.88863 0.121486,-0.35306 0.4462,-1.40019 0.721585,-2.32695 0.624503,-2.10169 1.736895,-5.7241 1.921962,-6.2587 0.07639,-0.22066 0.434843,-1.37612 0.796567,-2.56768 0.834763,-2.74979 1.403359,-4.60213 2.33988,-7.62277 0.410481,-1.32396 0.797808,-2.58635 0.86073,-2.80531 0.09604,-0.33423 -0.01013,-0.52266 -0.661725,-1.17425 -1.526314,-1.52631 -2.280194,-3.83104 -1.912028,-5.84537 0.265799,-1.45427 0.860879,-2.62394 1.913222,-3.7606 0.657336,-0.71 0.851428,-1.02857 0.792178,-1.30022 -0.202611,-0.92894 -1.108861,-4.04224 -1.257498,-4.31997 -0.225639,-0.42161 -0.803444,-0.31845 -1.058005,0.1889 -0.175043,0.34887 -0.70206,2.04178 -3.12239,10.02997 -0.26743,0.88263 -0.550609,1.78533 -0.629291,2.00599 -0.07868,0.22066 -0.401115,1.26779 -0.716522,2.32695 -0.315407,1.05917 -0.855913,2.82845 -1.201126,3.93175 -1.438156,4.59632 -2.5793,8.31723 -3.838885,12.5174 -0.277927,0.92677 -0.757562,2.47941 -1.065856,3.45031 -0.308294,0.9709 -0.697994,2.19857 -0.866,2.72815 -0.168005,0.52958 -0.532177,1.72114 -0.809273,2.64791 -0.277092,0.92677 -0.741355,2.4433 -1.031692,3.37007 -0.290338,0.92677 -0.692616,2.22665 -0.893956,2.88863 -0.201338,0.66198 -0.539259,1.74521 -0.750933,2.40719 -0.211677,0.66198 -0.780275,2.53959 -1.263552,4.17247 -0.483278,1.63288 -0.97778,3.25773 -1.098896,3.61079 -0.121115,0.35305 -0.453038,1.40018 -0.737612,2.32695 -0.284574,0.92677 -0.653334,2.11451 -0.819471,2.63943 l -0.302067,0.95439 0.521718,-0.49577 c 0.286947,-0.27268 0.81421,-0.6421 1.171692,-0.82094 z m 49.028462,0.19806 c -0.169784,-0.52284 -0.573807,-1.8172 -0.897827,-2.87637 -0.32402,-1.05916 -0.936429,-3.0451 -1.360909,-4.41318 -0.424477,-1.36809 -0.999529,-3.2457 -1.277894,-4.17247 -0.278365,-0.92677 -0.568018,-1.86557 -0.643671,-2.08623 -0.07566,-0.22066 -0.331593,-1.05114 -0.568747,-1.84552 -0.237157,-0.79437 -0.638053,-2.09425 -0.89088,-2.88863 -0.252828,-0.79437 -0.901809,-2.88863 -1.442183,-4.6539 -0.540374,-1.76528 -1.160368,-3.78732 -1.377766,-4.49343 -0.217398,-0.70611 -0.435365,-1.42827 -0.48437,-1.60479 -0.04901,-0.17653 -0.47024,-1.54863 -0.936078,-3.04911 -0.465835,-1.50049 -1.109732,-3.59474 -1.430881,-4.65391 -0.32115,-1.05916 -0.787488,-2.57569 -1.036305,-3.37007 -0.248817,-0.79437 -0.614793,-1.98593 -0.813275,-2.64791 -0.198483,-0.66198 -0.600421,-1.96186 -0.893191,-2.88863 -0.29277,-0.92677 -0.975137,-3.12935 -1.51637,-4.89462 -0.541233,-1.76528 -1.265001,-4.11229 -1.608375,-5.21559 -0.343376,-1.10329 -0.843244,-2.71801 -1.110818,-3.58826 -0.529433,-1.7219 -0.703639,-2.02852 -1.152516,-2.02852 -0.392791,0 -0.56647,0.36053 -1.024546,2.12679 -0.211679,0.8162 -0.470883,1.79214 -0.576008,2.16875 l -0.191136,0.68476 0.825032,0.82503 c 1.015991,1.01599 1.716573,2.41393 1.972354,3.93564 0.344691,2.05063 -0.376682,4.258 -1.911091,5.84787 l -0.718516,0.74448 0.271255,0.94055 c 0.14919,0.5173 0.77417,2.56541 1.388846,4.55134 1.39291,4.5003 2.016329,6.52697 2.418879,7.8635 0.172796,0.57371 0.518642,1.69305 0.768542,2.48743 0.2499,0.79437 0.646962,2.09425 0.882359,2.88863 0.235397,0.79437 0.778599,2.56366 1.207118,3.93175 0.428518,1.36808 1.111198,3.57066 1.51707,4.89462 2.707152,8.83077 4.437801,14.4622 4.992444,16.24512 l 0.560568,1.80196 0.628113,-0.455 c 1.739286,-1.25993 4.756939,-1.02352 6.203125,0.48598 0.239215,0.24968 0.457752,0.43116 0.485639,0.40327 0.02789,-0.0279 -0.08821,-0.47848 -0.257991,-1.00133 z M 25.48678,105.49817 c -1.554027,-0.73301 -2.370214,-1.97937 -2.385163,-3.64224 -0.01476,-1.64221 1.027242,-3.100576 2.626185,-3.675546 2.474827,-0.88994 5.133251,1.01357 5.133251,3.675546 0,2.2331 -1.427145,3.74573 -3.661127,3.88043 -0.816968,0.0493 -1.223591,-0.007 -1.713146,-0.23819 z m 2.773425,-0.44116 c 2.356215,-0.98425 2.848668,-4.21542 0.888687,-5.830996 -0.984226,-0.81129 -2.134441,-1.00508 -3.297786,-0.55564 -1.408617,0.5442 -2.273645,1.788126 -2.27104,3.265796 0.0041,2.35108 2.514891,4.02531 4.680139,3.12084 z m -2.106635,-2.29096 c -0.388516,-0.4293 -0.342587,-1.38756 0.08563,-1.78651 0.447959,-0.41733 0.937515,-0.41554 1.472653,0.005 0.564029,0.44366 0.600539,1.45048 0.06617,1.82476 -0.483222,0.33847 -1.298468,0.31656 -1.624452,-0.0436 z m 1.189273,-0.35409 c 0.629589,-0.33695 0.217656,-1.19494 -0.523276,-1.08991 -0.42509,0.0603 -0.588965,0.65469 -0.282341,1.02415 0.2285,0.27533 0.389488,0.28847 0.805617,0.0658 z m 41.330292,3.13904 c -0.971407,-0.3462 -1.991176,-1.4496 -2.290327,-2.47816 -0.712719,-2.45049 0.804113,-4.801506 3.286924,-5.094576 1.516416,-0.179 2.989069,0.58476 3.807331,1.97459 0.383714,0.651736 0.460332,0.964106 0.466791,1.903076 0.0065,0.93689 -0.06315,1.24323 -0.419273,1.84551 -0.234851,0.39719 -0.632037,0.90994 -0.882638,1.13945 -0.961926,0.88097 -2.64463,1.18204 -3.968808,0.71011 z m 2.651058,-0.4709 c 0.884944,-0.36981 1.441087,-0.90292 1.843531,-1.7672 0.444736,-0.9551 0.467744,-1.35292 0.141738,-2.45071 -0.299144,-1.007316 -1.340621,-2.030546 -2.340915,-2.299896 -2.099996,-0.56548 -4.318782,1.12664 -4.318782,3.293636 0,1.32116 0.998092,2.77152 2.25151,3.27176 0.586599,0.23411 1.806123,0.21016 2.422918,-0.0476 z m -2.106755,-2.34153 c -0.477854,-0.47786 -0.427948,-1.33687 0.101882,-1.75363 0.560916,-0.44122 1.109058,-0.42009 1.590446,0.0613 0.48139,0.48139 0.502516,1.02953 0.0613,1.59044 -0.416764,0.52983 -1.275773,0.57974 -1.753627,0.10189 z m 1.396785,-0.59004 c 0.208843,-0.31507 0.19777,-0.38308 -0.11295,-0.6938 -0.310721,-0.31072 -0.378724,-0.32179 -0.693801,-0.11295 -0.450966,0.29892 -0.513825,0.64767 -0.177372,0.98412 0.336451,0.33646 0.685208,0.2736 0.984123,-0.17737 z m 6.697981,-4.291566 c -0.300218,-0.21945 -0.313123,-0.52231 -0.35594,-8.35437 l -0.04443,-8.12665 -0.597489,0.0495 c -0.595968,0.0494 -0.597711,0.0517 -0.683048,0.90121 -0.09432,0.93885 -0.288073,1.14813 -1.066456,1.15188 -0.936812,0.005 -1.028636,-0.24892 -0.978764,-2.70146 l 0.04454,-2.19071 h 4.332945 4.332946 l 0.04449,2.28046 0.04449,2.28045 -0.445687,0.21524 c -0.950446,0.45901 -1.64928,-0.0839 -1.64928,-1.28131 v -0.68644 h -0.641919 -0.641916 v 8.07934 c 0,7.62332 -0.01656,8.09433 -0.293476,8.34493 -0.359971,0.32577 -0.984079,0.34265 -1.401007,0.0379 z m 1.020469,-0.44631 c 0.14453,-0.14453 0.193187,-2.17641 0.19503,-8.14434 0.0012,-4.37346 0.06221,-8.04597 0.135246,-8.16112 0.09102,-0.1435 0.431005,-0.19398 1.080781,-0.16047 l 0.947991,0.0489 0.08024,0.86631 c 0.08415,0.90851 0.374785,1.27653 0.860824,1.09002 0.222956,-0.0856 0.262533,-0.39223 0.262533,-2.03439 v -1.93364 l -3.891628,0.043 -3.891628,0.043 -0.04692,1.6048 c -0.06085,2.08149 0.0093,2.36207 0.574072,2.29695 0.384342,-0.0443 0.440766,-0.12593 0.478497,-0.69216 0.09219,-1.38348 0.09321,-1.3846 1.205887,-1.33148 l 0.998051,0.0476 0.04162,8.08957 c 0.02906,5.64839 0.09552,8.15453 0.220248,8.30482 0.221335,0.26669 0.496792,0.27502 0.749155,0.0226 z m 9.294727,-0.16072 c -1.430659,-1.52385 -1.471671,-1.66887 -1.53387,-5.42397 -0.06611,-3.99108 0.04265,-4.60708 1.050015,-5.94717 1.04099,-1.38482 1.204566,-1.46387 3.051795,-1.47483 0.863207,-0.005 1.727909,0.0415 1.921565,0.10353 0.487456,0.1562 1.971074,1.90655 2.229433,2.63025 0.138038,0.38666 0.215244,1.41486 0.219815,2.92736 0.0099,3.26372 0.259649,3.0447 -3.472425,3.0447 h -2.979832 l 0.101632,0.50815 c 0.0559,0.27949 0.285245,0.74889 0.509665,1.04312 l 0.408033,0.53496 h 2.326082 c 2.255691,0 2.337998,0.0119 2.719983,0.39391 0.289838,0.28983 0.393905,0.56735 0.393905,1.05041 0,0.48306 -0.104067,0.76057 -0.393905,1.05041 -0.386853,0.38685 -0.442002,0.3939 -3.081052,0.3939 H 88.41109 Z m 6.153948,0.18717 c 0.213677,-0.11436 0.31041,-0.33657 0.31041,-0.71306 0,-0.91071 -0.370597,-1.04657 -2.854651,-1.04657 -1.177723,0 -2.278732,-0.0735 -2.446689,-0.16343 -0.819074,-0.43836 -1.474629,-2.55395 -0.863997,-2.78827 0.139615,-0.0536 1.497272,-0.0974 3.017016,-0.0974 1.935159,0 2.820876,-0.0577 2.955746,-0.19258 0.130905,-0.1309 0.192575,-0.89168 0.192575,-2.37568 0,-2.01795 -0.03094,-2.24519 -0.40891,-3.00368 -0.224901,-0.45132 -0.728799,-1.11544 -1.119772,-1.47583 l -0.710859,-0.65525 h -1.552793 -1.552793 l -0.632181,0.68204 c -0.347698,0.37512 -0.824062,1.00701 -1.058585,1.4042 -0.412087,0.69791 -0.428206,0.81912 -0.480093,3.61006 -0.02953,1.58835 -0.0068,3.26352 0.0506,3.72261 0.109409,0.87567 0.577687,1.71377 1.509571,2.70175 l 0.525587,0.55722 h 2.404705 c 1.350731,0 2.540755,-0.0728 2.715113,-0.16612 z m -6.051065,-6.81559 c -0.05098,-0.13287 -0.06503,-0.78962 -0.0312,-1.45945 0.06024,-1.19307 0.07519,-1.23065 0.73344,-1.84466 0.66277,-0.61823 0.688999,-0.62675 1.921871,-0.62432 1.413739,0.003 1.445437,0.0155 2.107133,0.84817 0.374143,0.4708 0.507297,0.83618 0.591601,1.62341 0.18254,1.70453 0.192395,1.69842 -2.743323,1.69842 -2.066377,0 -2.502495,-0.0408 -2.579522,-0.24157 z m 4.75668,-1.27155 c 0,-0.95096 -0.0423,-1.07654 -0.540509,-1.6048 -0.510979,-0.5418 -0.596926,-0.5731 -1.573312,-0.5731 -0.959304,0 -1.069612,0.038 -1.54996,0.53356 -0.397083,0.40969 -0.539702,0.72399 -0.614289,1.35375 -0.159192,1.34413 -0.195334,1.32228 2.1868,1.32228 h 2.09127 z m 7.546357,8.38228 c -0.306826,-0.20756 -0.716648,-0.613 -0.910721,-0.90098 -0.985263,-1.46203 -0.917433,-5.19423 0.118333,-6.51099 0.595446,-0.75698 1.114228,-0.91161 3.077658,-0.91732 2.36886,-0.007 2.36481,-0.005 2.36481,-0.87763 0,-1.17337 -0.30778,-1.35326 -2.3153,-1.35326 -1.6341,0 -1.68156,-0.0104 -2.02165,-0.44132 -0.27722,-0.35131 -0.33202,-0.58662 -0.26866,-1.15372 0.11694,-1.04651 0.32137,-1.13321 2.67041,-1.13251 2.36723,7.2e-4 2.76101,0.15806 3.48722,1.39353 l 0.45398,0.77234 0.14228,5.16954 c 0.15429,5.60586 0.10786,6.05523 -0.64521,6.24424 -0.45268,0.11361 -1.18211,-0.3087 -1.18211,-0.6844 0,-0.19812 -0.13619,-0.15188 -0.6018,0.2043 -0.55478,0.4244 -0.72716,0.46447 -2.20659,0.51295 -1.46711,0.0481 -1.65266,0.0202 -2.16265,-0.32477 z m 4.12721,-0.71029 c 0.69609,-0.47941 0.88614,-0.54627 1.08462,-0.38154 0.13236,0.10984 0.24065,0.29036 0.24065,0.40113 0,0.11079 0.11614,0.29781 0.25808,0.41562 0.2195,0.18216 0.29411,0.1671 0.49899,-0.10071 0.20725,-0.27092 0.2264,-0.97515 0.13711,-5.04193 -0.0571,-2.59986 -0.18112,-5.03416 -0.27564,-5.40955 -0.0945,-0.37539 -0.40837,-0.95632 -0.69743,-1.29096 l -0.52557,-0.60843 -2.00005,-0.0527 -2.00005,-0.0527 -0.20423,0.49305 c -0.17396,0.41997 -0.16517,0.55267 0.0593,0.8952 0.25192,0.38448 0.33344,0.40215 1.85564,0.40215 1.45152,0 1.63192,0.0342 2.04242,0.38718 0.41727,0.35882 0.45026,0.47345 0.45026,1.56468 v 1.17749 l -2.35091,0.0802 c -2.59436,0.0886 -2.67293,0.11805 -3.391413,1.27328 -0.31604,0.50815 -0.35586,0.7879 -0.355576,2.49799 2.41e-4,1.994 0.09457,2.35491 0.840914,3.22039 0.496535,0.5758 0.888995,0.70146 2.206485,0.70647 1.21519,0.005 1.32671,-0.0256 2.12643,-0.57639 z m -2.39989,-1.30529 c -0.93448,-0.0465 -1.12058,-0.10867 -1.4042,-0.46923 -0.45885,-0.58333 -0.471649,-2.56529 -0.0202,-3.12285 0.29172,-0.36026 0.4018,-0.37886 2.24226,-0.37886 1.76807,0 1.96539,0.0299 2.2814,0.34593 0.26793,0.26793 0.35035,0.55465 0.36554,1.27162 l 0.0196,0.92569 -0.88264,0.67251 c -1.02976,0.78462 -1.1732,0.82625 -2.60181,0.75519 z m 2.22614,-1.16775 c 0.50872,-0.38408 0.8571,-0.77121 0.8571,-0.95243 0,-0.42437 -0.30267,-1.17791 -0.5316,-1.32348 -0.1048,-0.0666 -0.84475,-0.12227 -1.64432,-0.12362 -1.85934,-0.003 -2.0297,0.11119 -2.12481,1.42601 -0.0992,1.37189 0.13757,1.62064 1.54275,1.62064 0.97046,0 1.10399,-0.0455 1.90088,-0.64712 z m 7.25394,3.22911 -0.37886,-0.30664 -0.0457,-5.94376 c -0.0525,-6.82158 -0.0158,-7.08371 0.99133,-7.08371 0.3789,0 0.6337,0.10412 0.78564,0.32104 l 0.22487,0.32105 0.29054,-0.32105 c 0.43166,-0.47698 1.53577,-0.44121 2.02352,0.0656 l 0.3721,0.38661 0.45945,-0.38661 c 0.68035,-0.57247 1.74945,-0.541 2.35992,0.0695 0.25084,0.25085 0.52707,0.73831 0.61384,1.08324 0.25606,1.01792 0.40185,11.00902 0.16813,11.52198 -0.34671,0.76095 -1.42785,0.69084 -1.73218,-0.11233 -0.0732,-0.19323 -0.18666,-2.46364 -0.25209,-5.04535 -0.0654,-2.58171 -0.17673,-4.69403 -0.24731,-4.69403 -0.0706,0 -0.27866,0.24323 -0.46239,0.5405 -0.31606,0.5114 -0.33404,0.76593 -0.33404,4.7266 0,2.85735 -0.0597,4.31706 -0.188,4.59869 -0.35232,0.77326 -1.42553,0.66444 -1.74544,-0.17698 -0.084,-0.22104 -0.15551,-2.54561 -0.15882,-5.16571 l -0.006,-4.76381 -0.5487,0.64132 -0.5487,0.64133 -0.0471,4.46702 c -0.0443,4.20708 -0.0652,4.48027 -0.35859,4.69462 -0.42306,0.30909 -0.7844,0.28597 -1.23539,-0.0791 z m 0.97957,-0.48521 c 0.10259,-0.19169 0.16613,-1.94586 0.16613,-4.58677 v -4.27637 l 0.58101,-0.70905 c 0.31955,-0.38997 0.7023,-0.70904 0.85054,-0.70904 0.62274,0 0.65468,0.23942 0.65468,4.90666 0,4.76759 0.0576,5.49511 0.44722,5.64461 0.59619,0.22878 0.67614,-0.33839 0.67614,-4.79664 v -4.29423 l 0.49281,-0.7302 c 0.49511,-0.73363 0.92016,-0.91398 1.2415,-0.52679 0.10283,0.1239 0.22155,2.09913 0.30369,5.05257 0.12069,4.33981 0.16505,4.87891 0.42231,5.13253 0.27485,0.27095 0.29835,0.2693 0.53597,-0.0376 0.2175,-0.28089 0.23569,-0.95332 0.14573,-5.38725 -0.0565,-2.78645 -0.17873,-5.34128 -0.27153,-5.67739 -0.36877,-1.33559 -1.4205,-1.75611 -2.22856,-0.89108 -0.24736,0.26479 -0.52353,0.48144 -0.61373,0.48144 -0.0902,0 -0.38063,-0.21665 -0.64542,-0.48144 -0.58644,-0.58644 -1.0787,-0.60969 -1.69457,-0.08 -0.25645,0.22055 -0.50649,0.401 -0.55565,0.401 -0.0491,0 -0.24964,-0.19859 -0.44553,-0.44132 -0.34238,-0.42424 -0.36745,-0.43023 -0.64794,-0.15475 -0.27145,0.2666 -0.29179,0.69284 -0.29179,6.11368 0,4.70305 0.0425,5.8783 0.22025,6.09249 0.28747,0.34638 0.45335,0.335 0.65674,-0.045 z M 46.465471,80.117874 c -0.289055,-0.18041 -0.595972,-0.51322 -0.682039,-0.73959 -0.09379,-0.2467 -0.156477,-3.50987 -0.156477,-8.1459 v -7.73433 l 0.416916,-0.44962 c 0.582076,-0.62774 1.00669,-0.75069 2.592589,-0.75069 1.168584,0 1.465114,0.0557 1.906489,0.35814 0.950978,0.65162 0.937096,0.53636 0.990935,8.22751 0.02719,3.8836 0.004,7.3726 -0.05148,7.75332 -0.06265,0.42977 -0.274013,0.8861 -0.557484,1.20359 -0.453729,0.50819 -0.467419,0.51167 -2.195234,0.55849 -1.522636,0.0412 -1.803955,0.006 -2.264215,-0.28092 z m 3.4312,-0.25723 c 0.413994,-0.18278 0.271861,-0.20647 -1.30887,-0.21809 -1.867444,-0.0137 -2.15845,-0.11452 -2.15845,-0.74763 0,-0.5731 0.328399,-0.68855 2.049542,-0.72052 1.895466,-0.0352 2.185874,0.0933 2.088824,0.92464 -0.07605,0.65141 -0.04055,0.65889 0.270698,0.057 0.352189,-0.68106 0.367289,-14.48933 0.01675,-15.32825 -0.326584,-0.78163 -0.95514,-1.04863 -2.468672,-1.04863 -1.125237,0 -1.316474,0.0446 -1.694636,0.39506 -0.234449,0.21727 -0.497748,0.58305 -0.585114,0.81284 -0.09612,0.25283 -0.158844,3.22399 -0.158844,7.52495 v 7.10716 l 0.365896,0.54295 c 0.201241,0.29863 0.544266,0.63429 0.762278,0.74592 0.496207,0.25409 2.202665,0.2254 2.820584,-0.0474 z m -3.025891,-2.11683 c -0.342936,-0.0776 -0.548313,-0.79736 -0.327609,-1.14812 0.237768,-0.37788 3.496405,-0.45911 3.896387,-0.0971 0.283601,0.25665 0.267429,0.96079 -0.02623,1.14228 -0.177005,0.1094 -3.134369,0.19536 -3.542544,0.10297 z m 3.249599,-0.66479 c 0,-0.24149 -0.458657,-0.33813 -1.604794,-0.33813 -1.175711,0 -1.656617,0.10728 -1.514162,0.33777 0.115851,0.18746 3.118956,0.1878 3.118956,2.4e-4 z m -3.565428,-1.55419 c -0.134066,-0.29424 -0.139605,-0.49114 -0.01919,-0.68204 0.142754,-0.22631 0.468387,-0.26837 2.077551,-0.26837 h 1.908263 l 0.05172,0.45102 c 0.09227,0.80466 -0.154768,0.91305 -2.080799,0.91305 -1.72399,0 -1.751769,-0.006 -1.937545,-0.41366 z m 3.043871,-0.19978 c 0.286855,-0.0157 0.521557,-0.10069 0.521557,-0.18895 0,-0.20356 -2.995416,-0.21671 -3.120877,-0.0137 -0.166335,0.26913 0.471391,0.31885 2.59932,0.20266 z m -2.888631,-1.48564 c -0.322381,-0.18777 -0.372048,-0.79463 -0.08826,-1.07841 0.125556,-0.12556 0.784566,-0.19258 1.893658,-0.19258 1.787514,0 2.086232,0.10341 2.086232,0.72216 0,0.18535 -0.08666,0.42367 -0.192575,0.52958 -0.23967,0.23968 -3.293323,0.25556 -3.699051,0.0192 z m 3.290894,-0.54883 c -0.04145,-0.17033 -2.506676,-0.31427 -2.886452,-0.16853 -0.123303,0.0473 -0.177612,0.16138 -0.120689,0.25349 0.13558,0.21937 3.061089,0.13672 3.007141,-0.085 z m -3.374385,-1.3914 c -0.270929,-0.27093 -0.247387,-0.70211 0.05483,-1.00433 0.194725,-0.19472 0.608213,-0.25218 1.814842,-0.25218 1.796507,0 2.162588,0.15681 2.079089,0.89055 l -0.05389,0.47353 -1.848764,0.0449 c -1.301396,0.0316 -1.907195,-0.0135 -2.046114,-0.15246 z m 3.45356,-0.49423 c -0.04713,-0.14138 -0.509078,-0.2006 -1.564675,-0.2006 -1.055599,0 -1.517551,0.0592 -1.564675,0.2006 -0.05057,0.15171 0.330766,0.2006 1.564675,0.2006 1.233908,0 1.615246,-0.0489 1.564675,-0.2006 z m -3.383612,-1.27056 c -0.147012,-0.0823 -0.266192,-0.30848 -0.264839,-0.50269 0.005,-0.71941 0.150926,-0.76764 2.176781,-0.71951 l 1.912988,0.0454 0.04949,0.51089 c 0.03716,0.3836 -0.03318,0.55514 -0.282299,0.68847 -0.394332,0.21104 -3.20624,0.19334 -3.592123,-0.0226 z m 3.169887,-0.39153 c 0.620534,-0.23812 0.13774,-0.38403 -1.270711,-0.38403 -1.397401,0 -1.709563,0.0825 -1.417569,0.37446 0.133756,0.13375 2.344155,0.14163 2.68828,0.01 z m -3.244608,-1.53948 c -0.25847,-0.25847 -0.244159,-0.84867 0.02601,-1.07289 0.223169,-0.18522 3.495082,-0.28298 3.77065,-0.11267 0.285686,0.17657 0.302671,0.88409 0.02721,1.13338 -0.3447,0.31195 -3.520761,0.35529 -3.82387,0.0522 z m 3.379158,-0.52958 c -0.04145,-0.17033 -2.506676,-0.31427 -2.886452,-0.16853 -0.123303,0.0473 -0.177612,0.16138 -0.120689,0.25348 0.13558,0.21938 3.061089,0.13673 3.007141,-0.085 z m -3.271887,-1.33305 c -0.339197,-0.23722 -0.39618,-0.83338 -0.107271,-1.12229 0.125556,-0.12555 0.784566,-0.19257 1.893658,-0.19257 1.10909,0 1.7681,0.067 1.893657,0.19257 0.275664,0.27567 0.237536,0.85423 -0.07327,1.11173 -0.359355,0.29773 -3.18433,0.30599 -3.606778,0.0105 z m 3.351517,-0.55259 c -0.0443,-0.1338 -0.511829,-0.21626 -1.404153,-0.24764 -1.417649,-0.0498 -1.848885,0.0235 -1.686234,0.28663 0.154723,0.25034 3.173565,0.21226 3.090387,-0.039 z m -3.385771,-1.37671 c -0.328914,-0.36344 -0.338911,-0.73363 -0.02821,-1.04434 0.176517,-0.17651 0.637547,-0.23813 1.798004,-0.24031 1.812851,-0.003 2.137076,0.11575 2.137076,0.78535 0,0.63866 -0.433971,0.79278 -2.232286,0.79278 -1.161205,0 -1.455706,-0.0516 -1.674587,-0.29348 z m 3.425435,-0.50892 c 0,-0.17912 -0.06628,-0.19285 -1.203597,-0.24927 -1.033224,-0.0512 -2.005992,0.0765 -2.005992,0.26338 0,0.0805 0.722157,0.14637 1.604795,0.14637 0.962877,0 1.604794,-0.0642 1.604794,-0.16048 z m -0.119294,15.00483 c -0.04145,-0.17033 -2.506676,-0.31426 -2.886452,-0.16853 -0.123303,0.0473 -0.177612,0.16139 -0.120689,0.25349 0.13558,0.21937 3.061089,0.13673 3.007141,-0.085 z m -30.649529,-5.73101 c -0.375519,-0.18123 -1.006115,-1.30803 -1.006115,-1.79782 0,-0.5274 0.531232,-1.41277 1.030271,-1.71708 0.457723,-0.27912 0.8942,-0.30146 5.900997,-0.30202 3.312807,-2.4e-4 5.443891,0.0596 5.502716,0.15475 0.0528,0.0854 -0.166279,0.98813 -0.486855,2.00599 l -0.58286,1.85065 -5.000097,-0.0109 c -3.219262,-0.007 -5.127587,-0.0724 -5.358057,-0.18361 z m 9.847726,-0.24931 c 0.16455,-0.10662 1.021641,-2.56854 1.021641,-2.93457 0,-0.0928 -2.028633,-0.1522 -5.198958,-0.1522 h -5.19896 l -0.498063,0.56727 c -0.556037,0.63329 -0.627338,1.17248 -0.234352,1.77225 0.538621,0.82204 0.76191,0.85692 5.513552,0.86119 2.427251,0.002 4.495063,-0.0491 4.59514,-0.11394 z m 10.181845,0.002 c 0.0071,-0.24272 0.241783,-1.12737 0.521559,-1.96587 l 0.508685,-1.52456 h 2.246712 2.246714 l 0.04506,1.96588 0.04506,1.96587 h -2.813331 -2.813331 l 0.01288,-0.44132 z m 4.868625,0.0229 c 0.206629,-0.0793 0.253846,-0.37874 0.253846,-1.60988 v -1.51248 l -1.864457,0.0452 -1.864457,0.0452 -0.462496,1.364 c -0.254373,0.7502 -0.462497,1.4543 -0.462497,1.56467 0,0.15023 0.521167,0.20068 2.073108,0.20068 1.140212,0 2.187341,-0.0438 2.326953,-0.0974 z m 7.903368,0.31138 c -0.133741,-0.13374 -0.142061,-3.30591 -0.0096,-3.65115 0.08205,-0.21383 0.433138,-0.25385 2.227062,-0.25385 1.516808,0 2.172782,0.0577 2.279522,0.2006 0.243204,0.32554 1.184124,3.50351 1.084859,3.66413 -0.103143,0.16689 -5.416912,0.20523 -5.581865,0.0403 z m 4.906938,-0.69541 c -0.02265,-0.22066 -0.201713,-0.92476 -0.397923,-1.56467 l -0.356741,-1.16348 h -1.888912 -1.888911 v 1.49781 c 0,0.8238 0.05009,1.5479 0.111313,1.60912 0.06122,0.0612 1.090297,0.0913 2.286833,0.0669 l 2.175519,-0.0444 z m 9.821058,-0.60179 c -0.236497,-0.77231 -0.467022,-1.67501 -0.51228,-2.006 l -0.08229,-0.60179 h 5.407742 c 5.580651,0 5.729332,0.0157 6.461556,0.68212 0.744617,0.67771 0.665105,2.11499 -0.158624,2.86735 l -0.506379,0.46251 h -5.089869 -5.089865 z m 10.072156,0.91633 c 1.047815,-0.29101 1.495822,-1.20646 1.059292,-2.16453 -0.38308,-0.84078 -0.644865,-0.87816 -6.15006,-0.87816 -4.756022,0 -5.068832,0.0176 -4.99321,0.28084 0.623222,2.16948 0.807163,2.70605 0.961902,2.80593 0.283538,0.18304 8.44637,0.14359 9.122076,-0.0441 z M 46.639834,52.496684 c -1.138951,-0.36095 -2.500553,-1.48684 -3.145119,-2.60066 -0.89388,-1.54463 -0.970087,-3.76084 -0.184533,-5.36645 0.527355,-1.07788 1.680542,-2.2545 2.71797,-2.77322 0.703054,-0.35152 1.011021,-0.40119 2.487433,-0.40119 1.611943,0 1.728668,0.0237 2.690974,0.54548 1.204581,0.6532 2.011808,1.50533 2.581502,2.72509 0.3626,0.77635 0.420919,1.1141 0.418969,2.42645 -0.0026,1.74137 -0.256342,2.47732 -1.272658,3.69102 -1.553443,1.85515 -3.905896,2.51047 -6.294538,1.75348 z m 4.177841,-0.71813 c 2.578204,-1.26559 3.726699,-4.38747 2.535779,-6.89285 -0.822634,-1.73059 -2.096929,-2.71352 -4.035472,-3.11277 -1.551717,-0.31959 -3.425285,0.35415 -4.635299,1.66686 -1.068858,1.15957 -1.384196,1.99165 -1.369009,3.61239 0.01603,1.71052 0.376914,2.5819 1.548872,3.73985 1.618461,1.59912 3.927823,1.98169 5.955129,0.98652 z m -13.483254,-7.65698 c -1.424899,-1.54584 -2.634068,-3.68113 -3.338638,-5.89576 -0.370311,-1.16397 -0.445468,-1.72898 -0.512333,-3.85151 -0.07213,-2.28953 -0.04572,-2.61511 0.331945,-4.09223 1.211063,-4.73673 4.503365,-8.58662 8.86727,-10.36904 2.016105,-0.82347 3.766601,-1.17656 5.83292,-1.17656 4.188686,0 8.01958,1.63519 10.92353,4.66264 1.804176,1.88091 2.670335,3.33474 3.622653,6.08056 0.427222,1.23181 0.445345,1.41065 0.447213,4.41319 0.0019,3.12916 0.0019,3.12944 -0.525834,4.63007 -0.629998,1.79137 -1.427109,3.31451 -2.364036,4.51726 -1.755957,2.25416 -1.936978,2.29255 -2.458935,0.52156 -0.201604,-0.68405 -0.485701,-1.58836 -0.631327,-2.00958 -0.247283,-0.71527 -0.24679,-0.79478 0.0075,-1.2036 0.149741,-0.24075 0.503423,-0.87102 0.78596,-1.40061 2.350724,-4.40616 1.298423,-9.96872 -2.53149,-13.38168 -1.11511,-0.99371 -3.389781,-2.1487 -4.9181,-2.49721 -3.535535,-0.80625 -7.343578,0.31792 -10.036003,2.9627 -1.431512,1.40617 -2.120385,2.50257 -2.795415,4.4491 -0.434156,1.25194 -0.488669,1.617 -0.497518,3.33175 -0.0087,1.69423 0.04483,2.09491 0.445593,3.33272 0.250543,0.77383 0.735505,1.87116 1.077695,2.43852 0.342189,0.56735 0.622288,1.12578 0.622444,1.24095 1.54e-4,0.11516 -0.264425,1.05792 -0.587954,2.09502 -0.678674,2.17554 -0.795972,2.25531 -1.767122,1.20174 z m 1.390072,-1.60642 0.512274,-1.72863 -0.482216,-0.7588 c -1.299684,-2.04513 -1.945232,-4.8759 -1.668165,-7.31502 0.817998,-7.20112 7.242206,-11.62691 14.450396,-9.95522 2.109637,0.48926 4.731835,2.20486 6.067063,3.96943 2.825815,3.73446 3.211534,8.50449 1.027503,12.7067 -0.711946,1.36984 -0.74329,1.48318 -0.576898,2.08624 0.455359,1.65037 0.794898,2.6437 0.903667,2.6437 0.181553,0 1.315259,-1.40704 2.002271,-2.485 2.66948,-4.18859 2.972071,-9.49625 0.805249,-14.12463 -0.64154,-1.37035 -2.208165,-3.48051 -3.342797,-4.50256 -1.812575,-1.63273 -3.93166,-2.77856 -6.376708,-3.448 -1.994537,-0.5461 -5.104564,-0.52533 -7.141335,0.0477 -2.427169,0.68285 -3.674085,1.32658 -5.728176,2.95719 -2.457271,1.95067 -4.608285,5.62929 -5.097104,8.71695 -0.21535,1.36027 -0.21307,4.02213 0.0045,5.22623 0.322256,1.78367 1.028172,3.56679 2.02143,5.10607 0.726746,1.12626 1.978385,2.72345 2.063219,2.63284 0.02398,-0.0256 0.274102,-0.82443 0.555854,-1.77518 z m 7.790831,-2.00532 c -0.04728,-0.12322 -0.08597,-3.92281 -0.08597,-8.44351 0,-6.17895 0.04781,-8.26728 0.192576,-8.41205 0.285697,-0.2857 3.561089,-0.26312 3.801204,0.0262 0.131204,0.1581 0.170044,2.55086 0.14001,8.62578 l -0.04156,8.40699 -1.96014,0.0103 c -1.536567,0.008 -1.978717,-0.0381 -2.046114,-0.21372 z m 3.605009,-8.40137 4.6e-5,-8.12333 -0.601799,-0.0995 c -0.879602,-0.14539 -1.727338,-0.12474 -2.196143,0.0535 l -0.411647,0.15651 v 8.07167 8.07167 l 1.604747,-0.004 1.60475,-0.004 4.6e-5,-8.12334 z"
     id="path5982"
     inkscape:connector-curvature="0" />
</svg>
