<?xml version="1.0" encoding="UTF-8" standalone="no"?>
<!-- Created with Inkscape (http://www.inkscape.org/) -->

<svg
   xmlns:dc="http://purl.org/dc/elements/1.1/"
   xmlns:cc="http://creativecommons.org/ns#"
   xmlns:rdf="http://www.w3.org/1999/02/22-rdf-syntax-ns#"
   xmlns:svg="http://www.w3.org/2000/svg"
   xmlns="http://www.w3.org/2000/svg"
   xmlns:sodipodi="http://sodipodi.sourceforge.net/DTD/sodipodi-0.dtd"
   xmlns:inkscape="http://www.inkscape.org/namespaces/inkscape"
   version="1.1"
   id="svg6062"
   width="132.28346"
   height="142.76466"
   viewBox="0 0 132.28346 142.76466"
   sodipodi:docname="A-TeamLogo2.svg"
   inkscape:version="0.92.2 2405546, 2018-03-11">
  <metadata
     id="metadata6068">
    <rdf:RDF>
      <cc:Work
         rdf:about="">
        <dc:format>image/svg+xml</dc:format>
        <dc:type
           rdf:resource="http://purl.org/dc/dcmitype/StillImage" />
        <dc:title></dc:title>
      </cc:Work>
    </rdf:RDF>
  </metadata>
  <defs
     id="defs6066" />
  <sodipodi:namedview
     pagecolor="#ffffff"
     bordercolor="#666666"
     borderopacity="1"
     objecttolerance="10"
     gridtolerance="10"
     guidetolerance="10"
     inkscape:pageopacity="0"
     inkscape:pageshadow="2"
     inkscape:window-width="930"
     inkscape:window-height="988"
     id="namedview6064"
     showgrid="false"
     fit-margin-top="0"
     fit-margin-left="0"
     fit-margin-right="0"
     fit-margin-bottom="0"
     inkscape:zoom="1.4117647"
     inkscape:cx="-9.4582331"
     inkscape:cy="-17.28512"
     inkscape:window-x="20"
     inkscape:window-y="46"
     inkscape:window-maximized="0"
     inkscape:current-layer="svg6062" />
  <path
     style="fill:#000000;fill-opacity:1;stroke:none;stroke-width:0.16115625;stroke-opacity:1"
     d="M 59.363807,142.54206 C 42.948362,140.81586 28.180572,133.28082 16.928812,120.89029 8.319828,111.41001 2.5725313,99.186816 0.6998927,86.375072 0.09381395,82.228534 -0.07091595,79.473006 0.02578507,75.098777 0.17923076,68.157696 1.2557874,61.901543 3.3905434,55.545224 9.8889907,36.195823 24.762047,21.064785 44.134543,14.09449 c 0.930677,-0.334895 1.718476,-0.629641 1.75066,-0.65507 0.03217,-0.02649 -0.20351,-0.576513 -0.523757,-1.224659 l -0.58228,-1.178416 V 5.870854 c 0,-4.975604 0.01211,-5.178434 0.328576,-5.518174 C 45.423452,0.014 45.556105,0 48.492023,0 c 2.840816,0 3.078354,0.0227 3.378004,0.32241 0.309125,0.30916 0.322294,0.53719 0.322294,5.570468 0,3.309525 -0.06161,5.363325 -0.166804,5.55991 -0.215961,0.403502 -0.06925,0.402859 2.092624,-0.0076 10.519322,-2.004416 22.37163,-1.219739 32.582053,2.157069 7.048297,2.331062 13.163135,5.514539 19.076576,9.931642 13.69527,10.229756 22.93767,25.422779 25.69325,42.235713 0.59147,3.608737 0.81638,6.634264 0.81341,10.942308 -0.006,7.955909 -1.07313,14.367249 -3.62575,21.772757 -1.64703,4.778333 -4.4102,10.404883 -6.96971,14.192233 l -0.83517,1.23586 -1.13204,-0.55771 c -0.62263,-0.30689 -1.13206,-0.60198 -1.13206,-0.65613 0,-0.0541 0.4955,-0.86694 1.1011,-1.8062 5.31133,-8.23794 8.7581,-18.173291 9.73343,-28.056875 0.25857,-2.620284 0.25528,-9.837795 -0.006,-12.408999 -1.18034,-11.630868 -5.35345,-22.450835 -12.24464,-31.747803 -0.75554,-1.019295 -1.41823,-1.889531 -1.47264,-1.933881 -0.0544,-0.04427 -0.48759,-0.551954 -0.96259,-1.128088 C 106.01036,25.032528 93.115774,17.303478 79.257941,14.35072 74.67415,13.373998 72.161612,13.140517 66.212579,13.138436 c -4.291515,-0.0015 -5.861453,0.05827 -7.654923,0.290999 -2.16514,0.281161 -6.338277,1.043966 -7.665546,1.401378 l -0.634,0.170664 1.02e-4,1.403913 1.02e-4,1.403912 -1.732534,-0.03406 -1.732527,-0.03406 -0.04923,-0.826833 c -0.04821,-0.809501 -0.05835,-0.824562 -0.483468,-0.718228 -0.636529,0.159312 -3.267953,1.1503 -5.027181,1.893315 C 29.996671,22.835455 19.99235,31.212614 13.083056,41.661208 2.3159325,57.943795 -0.32175416,78.645189 6.0139072,97.142061 c 0.969079,2.829206 1.6654432,4.498689 3.1077679,7.450649 3.7296629,7.63282 8.6593989,14.09116 15.0805699,19.75635 4.359374,3.84611 8.926582,6.91523 13.8889,9.33314 6.857353,3.34128 13.65656,5.31659 21.433778,6.22698 2.648919,0.30992 11.0123,0.26451 13.859446,-0.0753 8.771427,-1.04745 16.86861,-3.72423 24.518583,-8.10535 0.987583,-0.56557 1.986332,-1.0283 2.219428,-1.0283 0.49452,0 2.51184,0.87788 2.51184,1.09309 0,0.13509 -1.75995,1.27177 -4.109478,2.65438 -6.923273,4.07403 -16.65593,7.14451 -25.683116,8.10262 -2.719193,0.28873 -10.711366,0.28532 -13.477857,-0.008 z m 6.285086,-10.4904 c -7.393981,-0.28306 -12.998249,-0.7471 -18.424179,-1.52588 -11.828826,-1.69775 -19.803633,-4.34289 -22.821954,-7.56974 -0.901017,-0.96325 -1.201795,-1.62222 -1.240574,-2.71787 -0.02342,-0.66174 0.06482,-0.96772 0.464474,-1.61064 0.475776,-0.76534 0.499882,-0.89469 0.675333,-3.62229 0.153908,-2.39274 0.145723,-2.94746 -0.05311,-3.60003 -0.129281,-0.42432 -0.431559,-1.46041 -0.671727,-2.30246 -0.240171,-0.84204 -0.577813,-2.00237 -0.750314,-2.5785 -0.89843,-3.00063 -1.109382,-4.04357 -0.956062,-4.72669 l 0.150839,-0.67206 0.01726,0.81738 c 0.05946,2.81615 2.068912,4.89825 4.731077,4.90211 0.598292,7.2e-4 1.087804,0.0462 1.087804,0.10066 0,0.20813 -2.317659,7.83466 -2.676693,8.80802 -0.123264,0.33414 -0.224119,0.75735 -0.224119,0.94035 0,0.30463 0.06476,0.28571 0.765493,-0.22553 4.816727,-3.51243 17.303511,-6.4762 31.385168,-7.44936 3.547426,-0.24522 9.983246,-0.55665 11.558966,-0.55949 0.888711,-0.002 0.917743,-0.0151 0.789094,-0.36441 -0.07345,-0.19942 -0.181828,-0.56206 -0.240822,-0.80579 l -0.107243,-0.44316 h 1.141302 c 2.651461,0 4.627448,-2.02432 4.685803,-4.80048 l 0.0193,-0.9206 0.167599,0.69859 c 0.145803,0.60777 0.09816,0.95345 -0.366342,2.65907 -0.293649,1.07829 -0.672142,2.38529 -0.841092,2.90447 -0.168962,0.51918 -0.284756,0.96477 -0.257359,0.99016 0.02725,0.0265 1.82657,0.1279 3.998143,0.2278 6.471762,0.29744 9.04703,0.48819 13.456553,0.99629 9.663369,1.11344 17.262699,2.88438 22.124709,5.15592 3.9847,1.86167 5.85981,3.79779 5.62209,5.80508 -0.12481,1.05373 -0.48246,1.68091 -1.55211,2.72174 -4.31058,4.19437 -18.224321,7.52391 -35.665624,8.53469 -3.01092,0.17445 -13.516017,0.32733 -15.99174,0.23234 z m 18.613545,-1.18531 c 12.737102,-0.96181 22.823412,-2.99101 28.740852,-5.78226 4.61831,-2.17845 6.06961,-4.32349 4.40329,-6.50814 -0.77292,-1.01339 -1.88773,-1.80193 -4.05543,-2.8686 -5.73153,-2.82031 -15.73144,-4.9297 -27.880042,-5.88111 -4.169992,-0.32657 -11.856732,-0.61677 -12.010788,-0.45345 -0.06891,0.073 -0.308217,0.7177 -0.531742,1.43256 -0.398526,1.27446 -0.4036,1.35426 -0.260916,4.10949 0.08003,1.54536 0.182433,3.17239 0.227616,3.61555 l 0.08208,0.80579 -0.309769,-0.88636 c -0.525437,-1.50339 -2.748595,-8.77105 -2.748304,-8.98447 2.43e-4,-0.25089 -1.259241,-0.25808 -6.526559,-0.0378 -18.95163,0.79433 -33.990555,4.205 -38.395475,8.7077 -0.376702,0.38504 -0.684915,0.75111 -0.684915,0.81344 0,0.0624 0.264681,0.17596 0.588176,0.2524 0.674707,0.15969 1.040606,0.5848 0.751757,0.87364 -0.101096,0.10104 -0.516456,0.22137 -0.923028,0.26716 -0.592523,0.067 -0.739217,0.14493 -0.739217,0.39268 0,0.53852 0.435785,1.18152 1.409962,2.0804 4.606973,4.25098 19.673529,7.59839 37.670423,8.36944 5.082474,0.21759 16.329117,0.0488 21.19204,-0.31862 z M 55.279681,120.3711 c -0.818618,-0.17331 -0.98873,-0.43082 -0.531266,-0.80462 0.624919,-0.51063 2.439781,-0.3103 2.439781,0.26943 0,0.41868 -1.057438,0.71517 -1.908515,0.53512 z m 5.010772,-0.002 c -0.657114,-0.19602 -0.71822,-0.72568 -0.110383,-0.95678 1.150951,-0.43759 2.694173,0.1718 1.963673,0.7756 -0.313932,0.25959 -1.275763,0.35344 -1.853297,0.18126 z m 5.35844,0.0587 c -0.900196,-0.22137 -0.951565,-0.76958 -0.09612,-1.02588 0.712753,-0.21342 1.662138,-0.0901 1.947095,0.25354 0.265759,0.32014 0.09154,0.52687 -0.607842,0.72111 -0.62969,0.17482 -0.724789,0.17899 -1.24314,0.0515 z m 4.941508,-0.12222 c -0.673882,-0.30198 -0.5937,-0.58147 0.252326,-0.87921 1.110915,-0.3909 2.459186,0.19526 1.768188,0.76878 -0.371677,0.30841 -1.447456,0.36707 -2.02051,0.1105 z m -41.898532,-0.0931 c -0.978345,-0.39223 0.32242,-1.22368 1.4992,-0.95826 0.883082,0.19905 1.055207,0.43782 0.589941,0.81802 -0.410857,0.33565 -1.430843,0.40418 -2.089141,0.14039 z m 5.133766,-0.11504 c -0.352367,-0.28532 -0.352417,-0.28608 -0.03061,-0.5775 0.59107,-0.53492 2.442866,-0.30084 2.442866,0.30879 0,0.55585 -1.808811,0.75724 -2.412253,0.26867 z m 5.272774,0.11163 c -0.756274,-0.44051 -0.03708,-0.99466 1.196902,-0.922 1.568734,0.0923 1.402055,1.10171 -0.1802,1.09115 -0.404077,-0.003 -0.861598,-0.0787 -1.016713,-0.16915 z m 5.109361,-0.053 c -0.304888,-0.22289 -0.305001,-0.23348 -0.0057,-0.56406 0.525279,-0.58041 2.511089,-0.40078 2.511089,0.22705 0,0.12676 -0.140278,0.30537 -0.311699,0.39722 -0.452779,0.24218 -1.831501,0.20434 -2.193555,-0.0602 z m 5.365796,0.0571 c -0.696148,-0.41504 -0.103118,-0.95791 1.046407,-0.95791 0.890713,0 1.407371,0.33905 1.152809,0.75606 -0.207559,0.3402 -1.732489,0.48014 -2.199216,0.2017 z M 25.440419,105.47048 c -0.728868,-0.32619 -1.560577,-1.13304 -1.904173,-1.84703 -0.394496,-0.81976 -0.345313,-2.32304 0.104207,-3.18499 0.996241,-1.910309 3.567925,-2.539005 5.299146,-1.295464 1.113165,0.799587 1.534626,1.697564 1.46675,3.125164 -0.06433,1.3529 -0.537994,2.21474 -1.605503,2.92116 -0.826956,0.54726 -2.460708,0.68394 -3.360427,0.28116 z m 2.095032,-2.65283 c 0.32486,-0.32505 0.41782,-0.89706 0.198977,-1.22484 -0.141042,-0.21116 -0.75192,-0.54787 -0.994164,-0.54787 -0.325946,0 -0.816376,0.64587 -0.816376,1.07511 0,0.91546 0.972679,1.33648 1.611563,0.6976 z m 41.255985,2.69642 c -1.405297,-0.63679 -2.25874,-1.91723 -2.252648,-3.37957 0.0106,-2.542403 2.381593,-4.239964 4.799997,-3.436669 1.966704,0.653217 3.022041,3.226429 2.066128,5.037819 -0.397845,0.75391 -1.335749,1.59311 -2.004363,1.79345 -0.784258,0.23499 -2.073814,0.22742 -2.609114,-0.0151 z m 2.083343,-2.79874 c 0.434539,-0.55241 0.421173,-0.79209 -0.07156,-1.28483 -0.297925,-0.29781 -0.501118,-0.37652 -0.7655,-0.29592 -0.91204,0.27776 -1.200357,1.08439 -0.601654,1.68307 0.44977,0.44975 1.037306,0.40797 1.438708,-0.10217 z m -48.486851,-2.69937 c -0.0082,-0.124122 0.316906,-1.18856 1.950173,-6.384211 0.181108,-0.576134 0.531235,-1.736462 0.778055,-2.578507 0.24682,-0.842045 0.786844,-2.61877 1.20005,-3.948325 0.413206,-1.329516 0.973174,-3.142531 1.244373,-4.028889 0.271201,-0.886357 0.591033,-1.901639 0.710735,-2.256212 0.119704,-0.354573 0.443363,-1.40607 0.71924,-2.336739 0.275878,-0.930707 0.821234,-2.707433 1.211903,-3.948325 C 31.54535,70.269241 33.6487,63.398734 34.544095,60.353 c 0.234518,-0.797732 0.488466,-1.595465 0.564332,-1.772714 0.07586,-0.177475 0.400921,-1.192569 0.722348,-2.256212 0.321424,-1.063606 0.839807,-2.767865 1.151963,-3.787159 0.312157,-1.019332 0.822108,-2.687263 1.133227,-3.706595 0.311132,-1.019331 0.70291,-2.288415 0.870646,-2.820237 0.16775,-0.531822 0.566265,-1.837196 0.885615,-2.900802 0.319343,-1.063643 0.645202,-2.115178 0.724113,-2.336777 0.0789,-0.22175 0.402741,-1.269424 0.719628,-2.328527 0.316883,-1.059142 0.654458,-2.020008 0.750159,-2.135349 0.255731,-0.308028 1.062913,-0.261105 1.239647,0.07228 0.08223,0.15515 0.448552,1.326225 0.814054,2.602424 l 0.66455,2.320354 -0.974376,1.014715 c -0.544979,0.567544 -1.167552,1.426996 -1.412722,1.950265 -0.394148,0.841213 -0.438346,1.115146 -0.438346,2.716628 0,1.735214 0.01551,1.812789 0.607935,3.011147 0.397906,0.805112 0.860864,1.452728 1.340029,1.874508 l 0.732094,0.644399 -1.313541,4.241103 c -1.436142,4.636924 -2.77835,9.013385 -3.22825,10.526167 -0.253915,0.853738 -0.989285,3.242169 -3.001939,9.749966 -0.315241,1.019332 -0.669513,2.17966 -0.787271,2.578508 -0.117755,0.398847 -0.603732,1.994312 -1.079943,3.545428 -0.476214,1.551115 -1.540046,5.0321 -2.36407,7.735521 -0.824024,2.703384 -1.555924,5.060292 -1.626442,5.237541 -0.07052,0.177476 -0.292934,0.848251 -0.494255,1.491099 -0.365275,1.166269 -0.366739,1.168086 -0.699129,0.864258 -1.095903,-1.001849 -3.052622,-1.386203 -4.667192,-0.916857 -0.717934,0.208884 -1.114434,0.458107 -1.761081,1.107577 -0.458995,0.461021 -0.920923,0.983269 -1.026505,1.160517 -0.105581,0.177474 -0.196234,0.258074 -0.201445,0.179744 z m 52.043995,-0.05487 c 0,-0.31938 -1.492348,-1.831784 -2.157481,-2.186471 -0.541048,-0.28835 -0.929129,-0.353438 -2.113169,-0.353438 -1.528339,0 -2.205944,0.225156 -3.142547,1.043588 l -0.402897,0.351924 -0.417597,-1.263029 c -0.229697,-0.694653 -0.458785,-1.371786 -0.50914,-1.50476 -0.05037,-0.132823 -0.161355,-0.531822 -0.246688,-0.886357 -0.08537,-0.354573 -0.603368,-2.095009 -1.151185,-3.867761 -0.547795,-1.772714 -1.215955,-3.948324 -1.48478,-4.834682 -0.268825,-0.886357 -0.659847,-2.155441 -0.868943,-2.820237 -0.608348,-1.934032 -1.137229,-3.648092 -1.765274,-5.721039 -0.322257,-1.063644 -0.799178,-2.622819 -1.059845,-3.464864 -0.260651,-0.842045 -0.66419,-2.147381 -0.896725,-2.900802 -0.232535,-0.75342 -0.528178,-1.696161 -0.65699,-2.095046 -0.128812,-0.398848 -0.516719,-1.66797 -0.862017,-2.820238 -0.345302,-1.15223 -0.853398,-2.820199 -1.129106,-3.706557 -0.275711,-0.886395 -0.678759,-2.191731 -0.895677,-2.900839 -0.216906,-0.709071 -0.562927,-1.833147 -0.768913,-2.497905 -0.20597,-0.664759 -0.57294,-1.861377 -0.815457,-2.659071 -0.242525,-0.797733 -0.49954,-1.641935 -0.57117,-1.876021 -0.113183,-0.370088 -0.03633,-0.517518 0.588187,-1.128088 2.714111,-2.653925 2.699769,-7.079921 -0.03141,-9.724839 l -0.834594,-0.808177 0.229431,-0.805793 c 0.126201,-0.443197 0.407722,-1.494732 0.625604,-2.336777 0.266782,-1.030988 0.52285,-1.657791 0.78411,-1.919275 0.369483,-0.369709 0.407086,-0.375764 0.789431,-0.125254 0.408039,0.267538 0.415433,0.287594 2.201691,6.073456 1.690481,5.475449 3.940665,12.801111 4.18288,13.617689 0.15776,0.531822 0.627908,2.054745 1.044799,3.3843 0.416886,1.329517 0.886372,2.85244 1.043296,3.384262 0.156928,0.531822 0.666102,2.199791 1.131489,3.706595 0.465388,1.506803 1.491285,4.842742 2.279724,7.413189 1.813708,5.912781 2.37729,7.733856 2.643341,8.541276 0.116816,0.354573 0.407732,1.297314 0.646496,2.095047 0.456343,1.524626 1.020962,3.375104 1.524376,4.99581 0.165216,0.531822 0.527754,1.728402 0.805699,2.659109 0.277982,0.930669 0.605786,1.982204 0.72854,2.336739 0.621596,1.79557 1.710851,5.596541 1.627645,5.679719 -0.0523,0.0522 -0.09506,0.0189 -0.09506,-0.07569 z m 3.041404,-2.244519 C 77.293733,97.500115 77.243744,95.939237 77.20753,89.417022 l -0.04465,-8.033181 h -0.801418 -0.801449 v 0.707367 c 0,0.93907 -0.417885,1.47952 -1.026018,1.326868 -0.609677,-0.152879 -0.746692,-0.646481 -0.746692,-2.689344 V 78.9665 h 4.270649 4.270623 v 1.989469 c 0,1.722726 -0.03951,2.025229 -0.294708,2.256175 -0.605593,0.548055 -1.333842,0.164988 -1.340998,-0.705211 -0.0083,-1.035641 -0.08276,-1.123092 -0.953665,-1.123092 h -0.794921 v 7.886167 c 0,4.733986 -0.06282,8.051383 -0.157155,8.299546 -0.118898,0.31257 -0.271095,0.413379 -0.624908,0.413379 -0.257245,0 -0.567253,-0.119957 -0.688893,-0.266403 z M 87.71288,97.056275 c -1.18276,-1.447128 -1.194241,-1.500673 -1.194241,-5.563354 0,-3.531541 0.0076,-3.615057 0.409307,-4.420926 0.225118,-0.451749 0.765908,-1.154916 1.201757,-1.562619 l 0.792453,-0.741273 h 1.366257 c 1.662358,0 1.954326,0.10255 2.827253,0.993788 1.058263,1.080294 1.331931,1.836477 1.424612,3.936367 0.04367,0.989551 0.03065,2.059514 -0.02914,2.377684 -0.196586,1.047939 -0.275939,1.072309 -3.491656,1.072309 h -2.889306 v 0.567506 c 0,0.681674 0.675574,1.777179 1.179253,1.912235 0.193445,0.05184 1.340003,0.09536 2.547901,0.09649 2.390875,0.0024 2.475337,0.03406 2.657338,0.942325 0.06834,0.341707 0.01514,0.638231 -0.163928,0.911256 l -0.265192,0.404789 h -2.807671 -2.80767 z m 5.171421,-7.47892 c 0,-0.959958 -0.05271,-1.138153 -0.500557,-1.692112 -0.496524,-0.61424 -0.510835,-0.619576 -1.782092,-0.665515 -1.277034,-0.04617 -1.283607,-0.04427 -1.876486,0.531519 -0.581322,0.564555 -0.594979,0.605499 -0.594979,1.783045 v 1.205246 l 2.37707,-0.04465 2.377044,-0.04465 z m 7.143099,7.923139 c -0.829745,-0.683944 -1.099739,-1.596714 -1.099739,-3.717947 0,-1.569923 0.04,-1.80189 0.443171,-2.571582 0.672258,-1.283275 1.093888,-1.447014 3.726278,-1.447014 h 2.16002 l -0.10853,-0.923442 c -0.18232,-1.551153 -0.31688,-1.654649 -2.15545,-1.657411 -2.03052,-0.0031 -2.35715,-0.158934 -2.42186,-1.154955 -0.0704,-1.083813 0.24634,-1.26004 2.26517,-1.26004 2.28939,0 2.84004,0.274349 3.53418,1.761437 0.30352,0.650228 0.3439,1.144889 0.45238,5.544699 0.0655,2.656952 0.0822,4.982679 0.0371,5.168291 -0.2099,0.861722 -1.04064,1.043171 -1.36099,0.297054 -0.1047,-0.243698 -0.21206,-0.473508 -0.23855,-0.510593 -0.0265,-0.03784 -0.36816,0.162339 -0.75919,0.443198 -0.68336,0.490764 -0.77275,0.510592 -2.29979,0.510592 -1.52677,0 -1.61162,-0.01892 -2.17404,-0.482438 z m 4.23221,-2.458664 c 0.90876,-0.659498 0.94393,-0.711984 0.94845,-1.414546 0.003,-0.406756 -0.10634,-0.888135 -0.2462,-1.087824 -0.23424,-0.334517 -0.37239,-0.358357 -2.08351,-0.358357 -2.30138,0 -2.33914,0.03027 -2.33914,1.775098 0,1.574388 0.19333,1.770368 1.74648,1.770368 0.95647,0 1.09767,-0.04919 1.97391,-0.684928 z m 7.24391,2.629404 c -0.10633,-0.198667 -0.16684,-2.464567 -0.16684,-6.249266 0,-5.11308 0.0348,-5.987253 0.25089,-6.295659 0.13797,-0.197154 0.35037,-0.358358 0.47196,-0.358358 0.24627,0 0.66267,0.369332 0.76603,0.679441 0.0453,0.135851 0.23784,0.05828 0.5908,-0.238778 0.68217,-0.574015 1.16165,-0.55623 1.87429,0.06963 l 0.58086,0.510025 0.39647,-0.427569 c 0.81254,-0.876292 1.93852,-0.69068 2.50125,0.412357 0.29558,0.579388 0.33649,1.095127 0.45659,5.757858 0.15901,6.172789 0.12733,6.452133 -0.73173,6.452133 -0.71138,0 -0.77541,-0.407059 -0.86698,-5.511776 -0.0912,-5.085797 -0.15417,-5.470227 -0.78426,-4.793889 -0.78982,0.847759 -0.83261,1.13891 -0.83261,5.664542 0,3.094057 -0.0528,4.307098 -0.19337,4.447716 -0.29607,0.295919 -0.90372,0.230076 -1.09019,-0.118443 -0.10407,-0.194504 -0.16685,-2.078472 -0.16685,-5.006443 0,-4.385468 -0.0787,-5.318181 -0.44885,-5.318181 -0.0633,0 -0.33277,0.272079 -0.59868,0.604364 l -0.48346,0.604325 -0.0806,4.447679 c -0.0861,4.75461 -0.12688,4.979955 -0.90041,4.979955 -0.20828,0 -0.45229,-0.139635 -0.54432,-0.311812 z M 46.874198,80.144651 c -1.130854,-0.585027 -1.127562,-0.559749 -1.127842,-8.647573 -2.42e-4,-7.949211 0.014,-8.072914 0.980416,-8.572722 0.622607,-0.32203 2.907647,-0.315597 3.536982,0.01135 0.981361,0.50749 0.975341,0.450387 0.925969,8.778163 l -0.04488,7.570496 -0.514997,0.514869 c -0.482072,0.481984 -0.600572,0.518842 -1.853297,0.576815 -1.063743,0.04919 -1.454019,0.0019 -1.902348,-0.229697 z m 3.395493,-0.788764 c 0.153712,-0.185044 0.165367,-0.328841 0.04246,-0.523762 -0.140164,-0.222128 -0.455242,-0.268673 -1.826384,-0.268673 -1.371143,0 -1.686236,0.04617 -1.826389,0.268673 -0.122908,0.194883 -0.111253,0.33868 0.04246,0.523762 0.166767,0.200937 0.546134,0.255429 1.783931,0.255429 1.237796,0 1.617141,-0.05411 1.78393,-0.255429 z m 0.125255,-2.070866 c 0.102134,-0.53273 -0.414151,-0.735862 -1.869997,-0.735862 -0.742291,0 -1.489892,0.07493 -1.661339,0.16688 -0.307612,0.164609 -0.417965,0.640161 -0.199311,0.858846 0.06183,0.06168 0.913077,0.09196 1.891657,0.06698 1.61162,-0.04087 1.784865,-0.07455 1.838978,-0.356843 z m -0.230302,-1.59259 c 0.159539,-0.116551 0.263186,-0.352302 0.230302,-0.523761 -0.05415,-0.282675 -0.227653,-0.315975 -1.858323,-0.357222 -1.732065,-0.0439 -1.802752,-0.03406 -1.911402,0.30992 -0.185082,0.583135 0.289675,0.782937 1.860547,0.782937 0.893873,0 1.49217,-0.07568 1.678864,-0.21229 z m 0.105085,-1.977019 c 0.153711,-0.185044 0.165366,-0.328841 0.04246,-0.523762 -0.140164,-0.222128 -0.455242,-0.268673 -1.826385,-0.268673 -1.371142,0 -1.686235,0.04617 -1.826388,0.268673 -0.122909,0.194883 -0.111253,0.33868 0.04246,0.523762 0.166767,0.200937 0.546133,0.255429 1.78393,0.255429 1.237797,0 1.617141,-0.05411 1.783931,-0.255429 z m 0.119427,-2.110902 c 0.07807,-0.548472 -0.442372,-0.713347 -2.088432,-0.66158 -1.165228,0.03784 -1.508218,0.10255 -1.641817,0.31484 -0.122682,0.195261 -0.109778,0.339815 0.04726,0.528984 0.178951,0.215695 0.510161,0.25278 1.92453,0.214938 1.616819,-0.04314 1.711059,-0.06433 1.758444,-0.397182 z m -0.184741,-1.570036 c 0.137439,-0.0526 0.216074,-0.244834 0.186293,-0.454588 -0.0501,-0.35306 -0.104556,-0.363277 -1.904891,-0.363277 H 46.63252 v 0.401307 c 0,0.317111 0.09865,0.418601 0.469278,0.483499 0.587774,0.102928 2.783535,0.05563 3.102628,-0.06698 z m 0.028,-1.845862 c 0.118557,-0.07493 0.191061,-0.309542 0.161167,-0.521264 -0.05355,-0.378602 -0.08219,-0.384695 -1.809546,-0.384695 -1.462733,0 -1.783374,0.04465 -1.924529,0.268674 -0.122909,0.194882 -0.111254,0.338679 0.04246,0.523761 0.166728,0.200938 0.542175,0.254672 1.763375,0.25278 0.853344,-0.0012 1.648534,-0.06395 1.767083,-0.139256 z m 0.137478,-2.055956 c 0.05563,-0.144932 0.02725,-0.380684 -0.06289,-0.523724 -0.245742,-0.389576 -3.401034,-0.382311 -3.647479,0.0076 -0.122909,0.194883 -0.111254,0.33868 0.04246,0.523762 0.316921,0.381857 3.52099,0.374629 3.667932,-0.0076 z m -0.03065,-2.153701 c 0,-0.393928 -0.03216,-0.404675 -1.450404,-0.48346 -1.822529,-0.101415 -2.13635,-0.05525 -2.258968,0.331111 -0.182811,0.575945 0.04549,0.647768 1.909068,0.600731 l 1.800304,-0.04541 z m -30.700259,9.172016 c -0.548568,-0.203587 -1.128094,-1.099972 -1.128094,-1.744598 0,-0.38776 0.146979,-0.676906 0.547931,-1.077835 l 0.547932,-0.547942 h 5.425709 5.42571 l -0.108605,0.36252 c -0.552554,1.844878 -0.955329,2.960704 -1.104343,3.059508 -0.260538,0.172557 -9.130493,0.124876 -9.606241,-0.05184 z m 19.955006,0.09309 c -0.04957,-0.04957 0.144062,-0.830995 0.430355,-1.736462 l 0.520495,-1.646324 2.042179,-0.04503 2.042182,-0.04503 -0.04579,1.737294 -0.04579,1.737295 -2.426741,0.04427 c -1.334712,0.02271 -2.46731,0.0037 -2.51689,-0.04579 z m 12.867145,-0.02649 c -0.05911,-0.05903 -0.107432,-0.856803 -0.107432,-1.772714 v -1.665282 h 2.075426 2.075429 L 56.67106,70.3839 c 0.09158,0.332247 0.307726,1.092025 0.480301,1.688064 0.172594,0.596038 0.275674,1.121805 0.229129,1.168388 -0.1248,0.124876 -4.793385,0.103307 -4.919352,-0.0227 z m 15.268845,-0.01514 c -0.09642,-0.06509 -0.217474,-0.263376 -0.269052,-0.4407 -0.297357,-1.022094 -0.746405,-2.456053 -0.845322,-2.699372 -0.107848,-0.265268 0.207787,-0.281918 5.317454,-0.281918 h 5.432087 l 0.547938,0.547942 c 0.631628,0.631647 0.734292,1.43517 0.273252,2.138791 -0.520935,0.795046 -0.953786,0.858922 -5.803798,0.856236 -2.462501,-0.0012 -4.556136,-0.05563 -4.652563,-0.120714 z M 46.652705,52.224308 c -2.454569,-0.988794 -3.809697,-3.12819 -3.595996,-5.677219 0.209338,-2.497186 1.740379,-4.245114 4.29055,-4.898445 0.866601,-0.222128 1.182659,-0.23348 2.002884,-0.0719 1.988626,0.391241 3.266913,1.365882 4.15509,3.16815 0.406651,0.82513 0.488467,1.185228 0.488467,2.149841 0,2.262646 -1.09968,4.0634 -3.109632,5.092079 -1.171624,0.599595 -3.068276,0.706119 -4.231363,0.237643 z m -9.197794,-8.349837 c -1.669141,-1.702065 -3.18857,-4.745982 -3.640118,-7.292326 -0.239478,-1.350443 -0.238211,-4.139915 0.0025,-5.479308 0.845045,-4.702427 4.257541,-9.022808 8.625311,-10.920095 2.260602,-0.981945 3.474835,-1.228746 6.04336,-1.228216 1.958265,4.92e-4 2.558644,0.06206 3.706594,0.380154 4.380284,1.213949 7.795345,4.031689 9.767479,8.059065 2.226538,4.546936 1.945835,9.857662 -0.755562,14.294746 -0.581901,0.955796 -2.097514,2.790305 -2.305251,2.790305 -0.102702,0 -0.316127,-0.453225 -0.474277,-1.007222 -0.158139,-0.553959 -0.392834,-1.369666 -0.521544,-1.812637 l -0.234011,-0.805414 0.874997,-1.773093 c 1.316802,-2.668343 1.611995,-4.531082 1.143663,-7.21668 -0.487994,-2.798365 -1.880804,-5.174194 -4.0411,-6.893174 -4.151404,-3.303395 -9.869965,-3.347026 -14.136353,-0.107848 -2.37667,1.804426 -3.905546,4.552121 -4.300243,7.72837 -0.31711,2.551867 0.452165,5.738636 1.838767,7.617155 l 0.356882,0.48346 -0.570931,1.89358 c -0.314007,1.041468 -0.619652,1.893579 -0.679206,1.893579 -0.05956,0 -0.37497,-0.272079 -0.700917,-0.604326 z m 9.258321,-11.756428 v -8.275214 l 0.413382,-0.157041 c 0.467212,-0.177854 1.871688,-0.207749 2.628443,-0.05638 l 0.503611,0.100658 v 8.32384 8.32388 l -1.772718,0.0076 -1.772718,0.0076 v -8.275215 z"
     id="path6615"
     inkscape:connector-curvature="0" />
</svg>
